<?xml version="1.0" encoding="UTF-8" standalone="no"?>
<!-- Created with Inkscape (http://www.inkscape.org/) -->

<svg
   xmlns:dc="http://purl.org/dc/elements/1.1/"
   xmlns:cc="http://creativecommons.org/ns#"
   xmlns:rdf="http://www.w3.org/1999/02/22-rdf-syntax-ns#"
   xmlns:svg="http://www.w3.org/2000/svg"
   xmlns="http://www.w3.org/2000/svg"
   xmlns:sodipodi="http://sodipodi.sourceforge.net/DTD/sodipodi-0.dtd"
   xmlns:inkscape="http://www.inkscape.org/namespaces/inkscape"
   width="744.09448819"
   height="1052.3622047"
   id="svg2"
   version="1.1"
   inkscape:version="0.48.3.1 r9886"
   sodipodi:docname="huk_skreft.svg">
  <defs
     id="defs4" />
  <sodipodi:namedview
     id="base"
     pagecolor="#ffffff"
     bordercolor="#666666"
     borderopacity="1.0"
     inkscape:pageopacity="0.0"
     inkscape:pageshadow="2"
     inkscape:zoom="0.7"
     inkscape:cx="907.49397"
     inkscape:cy="797.88198"
     inkscape:document-units="px"
     inkscape:current-layer="layer1"
     showgrid="true"
     inkscape:window-width="1024"
     inkscape:window-height="576"
     inkscape:window-x="0"
     inkscape:window-y="24"
     inkscape:window-maximized="1">
    <inkscape:grid
       type="xygrid"
       id="grid3001"
       empspacing="4"
       visible="true"
       enabled="true"
       snapvisiblegridlinesonly="true"
       units="mm"
       spacingx="4mm"
       spacingy="4mm" />
  </sodipodi:namedview>
  <metadata
     id="metadata7">
    <rdf:RDF>
      <cc:Work
         rdf:about="">
        <dc:format>image/svg+xml</dc:format>
        <dc:type
           rdf:resource="http://purl.org/dc/dcmitype/StillImage" />
        <dc:title></dc:title>
      </cc:Work>
    </rdf:RDF>
  </metadata>
  <g
     inkscape:label="Layer 1"
     inkscape:groupmode="layer"
     id="layer1">
    <path
       style="fill:none;stroke:#000000;stroke-width:1px;stroke-linecap:butt;stroke-linejoin:miter;stroke-opacity:1"
       d="m 613.66767,97.26295 10.6066,0.505077 0.50508,-33.840111 17.17259,-10.101525 0.50508,-18.182746 9.09137,-1.010152 4.54569,19.192898 16.16244,5.555839 7.07107,39.901026 11.11168,-0.505077"
       id="path2985"
       inkscape:connector-curvature="0" />
    <path
       style="fill:none;stroke:#000000;stroke-width:1px;stroke-linecap:butt;stroke-linejoin:miter;stroke-opacity:1"
       d="m 590.93924,99.283256 -10.10153,1.515224 -12.6269,-65.659911 -8.08122,0 -1.51523,21.71828 -21.21321,1.010152 -3.53553,-21.71828 -8.08122,0.505077 -3.53553,64.144682 -15.15229,-0.50507"
       id="path2987"
       inkscape:connector-curvature="0" />
    <path
       style="fill:none;stroke:#000000;stroke-width:1px;stroke-linecap:butt;stroke-linejoin:miter;stroke-opacity:1"
       d="m 492.95444,99.283256 -14.64721,0.505076 -5.09294,-40.99758 -23.57143,1.071429 -2.5,-11.785714 11.42857,-0.714286 -2.85714,-8.928571 -19.64286,2.142857 -0.71429,58.571428 -11.07143,-0.357142"
       id="path2989"
       inkscape:connector-curvature="0" />
    <path
       style="fill:none;stroke:#000000;stroke-width:1px;stroke-linecap:butt;stroke-linejoin:miter;stroke-opacity:1"
       d="m 396.98995,98.778179 -14.14214,0 -2.52538,-37.88072 -15.65736,-1.515229 0,-9.091373 13.13198,-0.505076 -0.50507,-10.606602 -39.90103,1.515229 0,9.091373 16.16244,-0.505076 -1.01015,11.111678 -14.64721,2.020305 -0.50508,34.345186 -10.10153,0"
       id="path2991"
       inkscape:connector-curvature="0" />
    <path
       style="fill:none;stroke:#000000;stroke-width:1px;stroke-linecap:butt;stroke-linejoin:miter;stroke-opacity:1"
       d="m 690.43927,107.86955 -17.67767,0 -6.06092,-44.44671 -11.61675,0 -0.50508,18.182746 -12.12183,1.010153 -4.04061,-17.67767 -9.09137,0 0.50507,40.406101 -14.64721,-0.50508"
       id="path2993"
       inkscape:connector-curvature="0" />
    <path
       style="fill:none;stroke:#000000;stroke-width:1px;stroke-linecap:butt;stroke-linejoin:miter;stroke-opacity:1"
       d="m 588.91893,109.38478 -18.68782,-1.01015 -5.05076,-27.779197 -11.11168,0 -3.53553,-17.677669 -11.61676,1.010152 2.02031,18.182746 -11.11168,-1.010152 0.50508,26.76904 -21.71828,0.50508"
       id="path2995"
       inkscape:connector-curvature="0" />
    <path
       style="fill:none;stroke:#000000;stroke-width:1px;stroke-linecap:butt;stroke-linejoin:miter;stroke-opacity:1"
       d="m 492.44937,107.36448 -23.23351,0.50507 -3.03046,-23.738583 -7.57614,-1.010152 0.50507,-10.606602 6.06092,0 -1.51523,-8.08122 -19.69798,1.010152 0.50508,7.071068 7.07107,0 -0.50508,9.596449 -7.07107,-0.505076 -2.0203,25.758894 -18.18275,-1.51523"
       id="path2997"
       inkscape:connector-curvature="0" />
    <path
       style="fill:none;stroke:#000000;stroke-width:1px;stroke-linecap:butt;stroke-linejoin:miter;stroke-opacity:1"
       d="m 396.48487,107.86955 -20.20305,-0.50507 -2.52538,-25.758894 -21.71828,1.010153 0,-6.565992 10.10153,0 -0.50508,-10.101525 -18.68782,2.525381 -1.01015,35.355337 -20.70813,0"
       id="path2999"
       inkscape:connector-curvature="0" />
    <path
       style="color:#000000;fill:#000000;fill-opacity:1;fill-rule:nonzero;stroke:none;stroke-width:1px;marker:none;visibility:visible;display:inline;overflow:visible;enable-background:accumulate"
       d="m 708.66142,287.00785 -28.34646,0 0,56.69291 -14.17323,0 0,-28.34645 -14.17322,0 0,28.34645 -14.17323,0 0,-56.69291 -28.34646,0 0,14.17323 14.17323,0 0,56.69291 28.34646,0 0,28.34646 14.17322,0 0,-28.34646 28.34646,0 0,-56.69291 14.17323,0 z"
       id="path3005"
       inkscape:connector-curvature="0"
       sodipodi:nodetypes="ccccccccccccccccccccc" />
    <path
       style="color:#000000;fill:#000000;fill-opacity:1;fill-rule:nonzero;stroke:none;stroke-width:1px;marker:none;visibility:visible;display:inline;overflow:visible;enable-background:accumulate"
       d="m 524.40944,272.83462 28.34646,0 0,-28.34646 14.17323,0 0,-28.34645 14.17323,0 0,28.34645 14.17323,0 0,28.34646 28.34645,0 0,-14.17323 -14.17323,0 0,-85.03937 -14.17322,0 0,28.34646 -42.51969,0 0,-28.34646 -14.17323,0 0,85.03937 -14.17323,0 z"
       id="path3009"
       inkscape:connector-curvature="0"
       sodipodi:nodetypes="ccccccccccccccccccccc" />
    <path
       style="color:#000000;fill:#000000;fill-opacity:1;fill-rule:nonzero;stroke:none;stroke-width:1px;marker:none;visibility:visible;display:inline;overflow:visible;enable-background:accumulate"
       d="m 354.33071,258.66139 14.17323,0 0,-56.69291 28.34646,0 0,-14.17323 -28.34646,0 0,-14.17323 70.86614,0 0,14.17323 -28.34646,0 0,14.17323 28.34646,0 0,56.69291 14.17323,0 -1e-5,14.17324 -28.34645,0 0,-28.34646 -14.17323,0 0,-28.34645 -14.17323,0 0,28.34645 -14.17323,0 0,28.34646 -28.34646,0 z"
       id="path3015"
       inkscape:connector-curvature="0"
       sodipodi:nodetypes="ccccccccccccccccccccccccc" />
    <path
       style="fill:#000000;stroke:none;stroke-width:1px;stroke-linecap:butt;stroke-linejoin:miter;stroke-opacity:1;fill-opacity:1"
       d="m 609.44881,272.83462 28.34646,0 0,-28.34646 14.17323,0 0,-28.34645 14.17323,0 0,28.34645 14.17323,0 0,28.34646 28.34645,0 10e-6,-14.17323 -14.17323,0 0,-56.69291 -28.34646,0 0,-28.34646 -14.17322,0 0,28.34646 -28.34646,0 0,56.69291 -14.17323,0 z"
       id="path3009-1"
       inkscape:connector-curvature="0"
       sodipodi:nodetypes="ccccccccccccccccccccc" />
    <path
       style="fill:none;stroke:#000000;stroke-width:1px;stroke-linecap:butt;stroke-linejoin:miter;stroke-opacity:1"
       d="m 708.66142,556.29919 -14.17323,0 0,-56.69291 -28.34646,0 0,-28.34646 -14.17322,0 0,28.34646 -28.34646,0 0,56.69291 -14.17323,0"
       id="path3003-7-3"
       inkscape:connector-curvature="0"
       sodipodi:nodetypes="cccccccccc" />
    <path
       style="fill:none;stroke:#000000;stroke-width:1px;stroke-linecap:butt;stroke-linejoin:miter;stroke-opacity:1"
       d="m 708.66142,712.20471 -28.34646,0 0,-28.34646 -14.17323,0 0,-14.17322 14.17323,0 0,-14.17323 -42.51969,0 0,14.17323 14.17323,0 0,14.17322 -14.17323,0 0,28.34646 -28.34645,0"
       id="path3013-0"
       inkscape:connector-curvature="0"
       sodipodi:nodetypes="cccccccccccccc" />
    <path
       style="fill:none;stroke:#000000;stroke-width:1px;stroke-linecap:butt;stroke-linejoin:miter;stroke-opacity:1"
       d="m 708.66142,698.03147 -14.17323,0 0,-56.69291 -28.34646,0 0,-28.34646 -14.17322,0 0,28.34646 -28.34646,0 0,56.69291 -14.17323,0"
       id="path3003-7-3-4"
       inkscape:connector-curvature="0"
       sodipodi:nodetypes="cccccccccc" />
    <path
       style="fill:none;stroke:#000000;stroke-width:1px;stroke-linecap:butt;stroke-linejoin:miter;stroke-opacity:1"
       d="m 708.66142,570.47242 -28.34646,0 0,-28.34646 -28.34645,0 0,-14.17322 28.34645,0 0,-14.17323 -42.51968,0 0,56.69291 -28.34646,0"
       id="path3017-6"
       inkscape:connector-curvature="0" />
    <path
       style="fill:none;stroke:#000000;stroke-width:1px;stroke-linecap:butt;stroke-linejoin:miter;stroke-opacity:1"
       d="m 595.27558,556.29919 -14.17323,0 0,-85.03937 -14.17322,0 0,28.34646 -42.51969,0 0,-28.34646 -14.17323,0 0,85.03937 -14.17323,0"
       id="path3007-8"
       inkscape:connector-curvature="0" />
    <path
       style="fill:none;stroke:#000000;stroke-width:1px;stroke-linecap:butt;stroke-linejoin:miter;stroke-opacity:1"
       d="m 595.27557,698.03148 -14.17323,0 0,-85.03937 -14.17322,0 0,28.34646 -42.51969,0 0,-28.34646 -14.17323,0 0,85.03937 -14.17323,0"
       id="path3007-7-7"
       inkscape:connector-curvature="0" />
    <path
       style="color:#000000;fill:#000000;fill-opacity:1;fill-rule:nonzero;stroke:none;stroke-width:1px;marker:none;visibility:visible;display:inline;overflow:visible;enable-background:accumulate"
       d="m 623.62205,287.00786 -28.34646,0 0,56.69291 -14.17323,0 0,-28.34645 -14.17322,0 0,28.34645 -14.17323,0 0,-56.69291 -28.34646,0 10e-6,14.17322 14.17323,0 0,85.03937 14.17322,0 0,-28.34646 42.51969,0 0,28.34646 14.17323,0 0,-85.03937 14.17323,0 z"
       id="path3005-9"
       inkscape:connector-curvature="0"
       sodipodi:nodetypes="ccccccccccccccccccccc" />
    <path
       style="fill:none;stroke:#000000;stroke-width:1px;stroke-linecap:butt;stroke-linejoin:miter;stroke-opacity:1"
       d="m 595.2756,712.2047 -28.34646,0 0,-28.34646 -14.17323,0 0,-14.17322 14.17323,0 0,-14.17323 -42.51969,0 0,14.17323 14.17323,0 0,14.17322 -14.17323,0 0,28.34646 -28.34645,0"
       id="path3013-0-2"
       inkscape:connector-curvature="0"
       sodipodi:nodetypes="cccccccccccccc" />
    <path
       style="fill:none;stroke:#000000;stroke-width:1px;stroke-linecap:butt;stroke-linejoin:miter;stroke-opacity:1"
       d="m 595.27559,570.47242 -28.34646,0 0,-28.34646 -28.34645,0 0,-14.17322 28.34645,0 0,-14.17323 -42.51968,0 0,56.69291 -28.34646,0"
       id="path3017-6-9"
       inkscape:connector-curvature="0" />
    <path
       style="color:#000000;fill:#000000;fill-opacity:1;fill-rule:nonzero;stroke:none;stroke-width:1px;marker:none;visibility:visible;display:inline;overflow:visible;enable-background:accumulate"
       d="m 538.58268,301.18108 -14.17324,0 0,85.03937 -42.51967,0 0,-14.17323 28.34646,0 0,-14.17323 -56.69292,0 0,-56.69291 -14.17323,0 0,-14.17322 28.34646,0 0,56.69291 14.17322,0 0,-28.34645 14.17323,0 0,28.34645 14.17323,0 0,-56.69291 28.34645,0 z"
       id="path3011-4"
       inkscape:connector-curvature="0"
       sodipodi:nodetypes="ccccccccccccccccccccc" />
    <path
       style="color:#000000;fill:#000000;fill-opacity:1;fill-rule:nonzero;stroke:none;stroke-width:1px;marker:none;visibility:visible;display:inline;overflow:visible;enable-background:accumulate"
       d="m 453.54331,301.18108 -14.17323,0 0,56.69291 -28.34646,0 0,14.17323 28.34646,0 0,14.17323 -70.86614,0 0,-14.17323 28.34646,0 0,-14.17323 -28.34646,0 0,-56.69291 -14.17323,0 0,-14.17323 28.34646,0 0,56.69291 14.17323,0 0,-28.34645 14.17322,0 0,28.34645 14.17323,0 0,-56.69291 28.34646,0 z"
       id="path3015-6"
       inkscape:connector-curvature="0"
       sodipodi:nodetypes="ccccccccccccccccccccccccc" />
    <path
       style="fill:none;stroke:#000000;stroke-width:1px;stroke-linecap:butt;stroke-linejoin:miter;stroke-opacity:1"
       d="m 481.88977,556.29919 -14.17323,0 0,-56.69291 -56.69292,0 0,-14.17323 28.34646,0 0,-14.17323 -42.51968,0 0,85.03937 -14.17323,0"
       id="path3011-2"
       inkscape:connector-curvature="0" />
    <path
       style="fill:none;stroke:#000000;stroke-width:1px;stroke-linecap:butt;stroke-linejoin:miter;stroke-opacity:1"
       d="m 368.50394,556.29919 -14.17323,0 0,-56.69291 -28.34646,0 0,-14.17323 28.34646,0 0,-14.17323 -70.86614,0 0,14.17323 28.34646,0 0,14.17323 -28.34646,0 0,56.69291 -14.17323,0"
       id="path3015-3"
       inkscape:connector-curvature="0" />
    <path
       style="fill:none;stroke:#000000;stroke-width:1px;stroke-linecap:butt;stroke-linejoin:miter;stroke-opacity:1"
       d="m 481.88977,698.03148 -14.17323,0 0,-56.69291 -56.69292,0 0,-14.17323 28.34646,0 0,-14.17323 -42.51968,0 0,85.03937 -14.17323,0"
       id="path3011-4-0"
       inkscape:connector-curvature="0" />
    <path
       style="fill:none;stroke:#000000;stroke-width:1px;stroke-linecap:butt;stroke-linejoin:miter;stroke-opacity:1"
       d="m 368.50394,698.03148 -14.17323,0 0,-56.69291 -28.34646,0 0,-14.17323 28.34646,0 0,-14.17323 -70.86614,0 0,14.17323 28.34646,0 0,14.17323 -28.34646,0 0,56.69291 -14.17323,0"
       id="path3015-6-7"
       inkscape:connector-curvature="0" />
    <path
       style="color:#000000;fill:#000000;fill-opacity:1;fill-rule:nonzero;stroke:none;stroke-width:1px;marker:none;visibility:visible;display:inline;overflow:visible;enable-background:accumulate"
       d="m 439.37008,272.83462 28.34646,0 0,-28.34646 14.17323,0 0,-28.34645 14.17323,0 0,28.34645 14.17323,0 0,28.34646 28.34645,0 10e-6,-14.17323 -14.17323,0 0,-56.69291 -56.69292,0 0,-14.17323 28.34646,0 0,-14.17323 -42.51968,0 0,85.03937 -14.17323,0 z"
       id="path3009-1-6"
       inkscape:connector-curvature="0"
       sodipodi:nodetypes="ccccccccccccccccccccc" />
    <path
       style="fill:none;stroke:#000000;stroke-width:1px;stroke-linecap:butt;stroke-linejoin:miter;stroke-opacity:1"
       d="m 481.88977,712.20471 -28.34646,0 0,-28.34646 -14.17323,0 0,-14.17322 14.17323,0 0,-14.17323 -42.51969,0 0,14.17323 14.17323,0 0,14.17322 -14.17323,0 0,28.34646 -28.34645,0"
       id="path3013-0-0"
       inkscape:connector-curvature="0"
       sodipodi:nodetypes="cccccccccccccc" />
    <path
       style="fill:none;stroke:#000000;stroke-width:1px;stroke-linecap:butt;stroke-linejoin:miter;stroke-opacity:1"
       d="m 481.88977,570.47242 -28.34646,0 0,-28.34646 -28.34645,0 0,-14.17322 28.34645,0 0,-14.17323 -42.51968,0 0,56.69291 -28.34646,0"
       id="path3017-6-95"
       inkscape:connector-curvature="0" />
    <path
       style="fill:none;stroke:#000000;stroke-width:1px;stroke-linecap:butt;stroke-linejoin:miter;stroke-opacity:1"
       d="m 368.50394,712.20472 -28.34646,0 0,-28.34646 -14.17323,0 0,-14.17322 14.17323,0 0,-14.17323 -42.51969,0 0,14.17323 14.17323,0 0,14.17322 -14.17323,0 0,28.34646 -28.34645,0"
       id="path3013-0-7"
       inkscape:connector-curvature="0"
       sodipodi:nodetypes="cccccccccccccc" />
    <path
       style="fill:none;stroke:#000000;stroke-width:1px;stroke-linecap:butt;stroke-linejoin:miter;stroke-opacity:1"
       d="m 368.50394,570.47243 -28.34646,0 0,-28.34646 -28.34645,0 0,-14.17322 28.34645,0 0,-14.17323 -42.51968,0 0,56.69291 -28.34646,0"
       id="path3017-6-93"
       inkscape:connector-curvature="0" />
    <path
       style="color:#000000;fill:#000000;fill-opacity:1;fill-rule:nonzero;stroke:none;stroke-width:1px;marker:none;visibility:visible;display:inline;overflow:visible;enable-background:accumulate"
       d="m 368.50394,258.6614 -28.34646,0 0,14.17322 -28.34645,0 0,14.17323 28.34645,0 0,14.17323 28.34646,0 0,-14.17323 -14.17323,0 0,-14.17323 14.17323,0 z"
       id="path4494"
       inkscape:connector-curvature="0"
       sodipodi:nodetypes="ccccccccccccc" />
    <path
       style="color:#000000;fill:#000000;fill-opacity:1;fill-rule:nonzero;stroke:none;stroke-width:1px;marker:none;visibility:visible;display:inline;overflow:visible;enable-background:accumulate"
       d="m 1034.6457,187.79525 -14.1733,0 0,-28.34645 c 0,0 -14.1732,0 -14.1732,0 l 0,28.34645 c 0,0 -14.17322,0 -14.17322,0 l 0,14.17323 42.51972,0 z"
       id="path4526"
       inkscape:connector-curvature="0" />
    <path
       style="color:#000000;fill:#000000;stroke:none;stroke-width:1px;stroke-opacity:1;marker:none;visibility:visible;display:inline;overflow:visible;enable-background:accumulate;fill-opacity:1;fill-rule:nonzero"
       d="m 935.43307,201.96848 42.51968,0 0,-42.51968 -42.51968,0 z m 28.34645,-28.34646 0,14.17323 -14.17323,0 0,-14.17323 z"
       id="path4534"
       inkscape:connector-curvature="0"
       sodipodi:nodetypes="cccccccccc" />
    <path
       style="color:#000000;fill:#000000;fill-opacity:1;fill-rule:nonzero;stroke:none;stroke-width:1px;marker:none;visibility:visible;display:inline;overflow:visible;enable-background:accumulate"
       d="m 921.25987,187.79525 -28.3464,0 0,-14.17323 14.1732,0 0,-14.17322 -28.3465,0 0,42.51968 42.5197,0 z"
       id="path4542"
       inkscape:connector-curvature="0" />
    <path
       style="color:#000000;fill:#000000;fill-opacity:1;fill-rule:nonzero;stroke:none;stroke-width:1px;marker:none;visibility:visible;display:inline;overflow:visible;enable-background:accumulate"
       d="m 822.04727,187.79525 0,14.17323 42.5197,0 0,-14.17323 -14.1732,0 0,-14.17323 14.1732,0 0,-14.17322 c 0,0 -42.5197,0 -42.5197,0 l 0,14.17322 14.1732,0 0,14.17323 z"
       id="path4550"
       inkscape:connector-curvature="0" />
    <path
       style="color:#000000;fill:#000000;fill-opacity:1;fill-rule:nonzero;stroke:none;stroke-width:1px;marker:none;visibility:visible;display:inline;overflow:visible;enable-background:accumulate"
       d="m 992.12594,201.96848 14.17326,0 0,28.3465 c 0,0 14.1732,0 14.1732,0 l 0,-28.3465 c 0,0 14.1732,0 14.1732,0 l 0,-14.1732 -42.51966,0 z"
       id="path4526-5"
       inkscape:connector-curvature="0" />
    <path
       style="color:#000000;fill:#000000;fill-opacity:1;fill-rule:nonzero;stroke:none;stroke-width:1px;marker:none;visibility:visible;display:inline;overflow:visible;enable-background:accumulate"
       d="m 1034.6457,272.83462 -14.1733,0 0,-28.34645 c 0,0 -14.1732,0 -14.1732,0 l 0,28.34645 c 0,0 -14.17322,0 -14.17322,0 l 0,14.17323 42.51972,0 z"
       id="path4526-4"
       inkscape:connector-curvature="0" />
    <path
       style="color:#000000;fill:#000000;fill-opacity:1;fill-rule:nonzero;stroke:none;stroke-width:1px;marker:none;visibility:visible;display:inline;overflow:visible;enable-background:accumulate"
       d="m 1034.6457,272.83458 -42.51966,0 0,42.5197 42.51966,0 z m -28.3465,28.3465 0,-14.1733 14.1732,0 0,14.1733 z"
       id="path4534-2-9"
       inkscape:connector-curvature="0"
       sodipodi:nodetypes="cccccccccc" />
    <path
       style="color:#000000;fill:#000000;fill-opacity:1;fill-rule:nonzero;stroke:none;stroke-width:1px;marker:none;visibility:visible;display:inline;overflow:visible;enable-background:accumulate"
       d="m 1034.6457,357.87399 -14.1733,0 0,-28.34645 c 0,0 -14.1732,0 -14.1732,0 l 0,28.34645 c 0,0 -14.17316,0 -14.17316,0 l 0,14.17323 42.51966,0 z"
       id="path4526-2"
       inkscape:connector-curvature="0" />
    <path
       style="color:#000000;fill:#000000;fill-opacity:1;fill-rule:nonzero;stroke:none;stroke-width:1px;marker:none;visibility:visible;display:inline;overflow:visible;enable-background:accumulate"
       d="m 1034.6457,442.91336 -14.1733,0 0,-28.34645 c 0,0 -14.1732,0 -14.1732,0 l 0,28.34645 c 0,0 -14.17316,0 -14.17316,0 l 0,14.17323 42.51966,0 z"
       id="path4526-4-0"
       inkscape:connector-curvature="0" />
    <path
       style="color:#000000;fill:#000000;fill-opacity:1;fill-rule:nonzero;stroke:none;stroke-width:1px;marker:none;visibility:visible;display:inline;overflow:visible;enable-background:accumulate"
       d="m 992.12601,372.04722 28.34639,0 0,14.17323 -14.1732,0 0,14.17321 28.3465,0 0,-42.51967 -42.51969,0 z"
       id="path4542-8-0"
       inkscape:connector-curvature="0" />
    <path
       style="color:#000000;fill:#000000;fill-opacity:1;fill-rule:nonzero;stroke:none;stroke-width:1px;marker:none;visibility:visible;display:inline;overflow:visible;enable-background:accumulate"
       d="m 1034.6456,457.08659 0,-14.17323 -42.51966,0 0,14.17323 14.17316,0 0,14.17323 -14.17316,0 0,14.17322 c 0,0 42.51966,0 42.51966,0 l 0,-14.17322 -14.1732,0 0,-14.17323 z"
       id="path4550-8-6"
       inkscape:connector-curvature="0" />
    <path
       style="color:#000000;fill:#000000;fill-opacity:1;fill-rule:nonzero;stroke:none;stroke-width:1px;marker:none;visibility:visible;display:inline;overflow:visible;enable-background:accumulate"
       d="m 935.433,287.00785 42.51968,0 0,-42.51968 -42.51968,0 z m 28.34645,-28.34646 0,14.17323 -14.17323,0 0,-14.17323 z"
       id="path4534-24"
       inkscape:connector-curvature="0"
       sodipodi:nodetypes="cccccccccc" />
    <path
       style="color:#000000;fill:#000000;fill-opacity:1;fill-rule:nonzero;stroke:none;stroke-width:1px;marker:none;visibility:visible;display:inline;overflow:visible;enable-background:accumulate"
       d="m 921.2598,272.83462 -28.3464,0 0,-14.17323 14.1732,0 0,-14.17322 -28.3465,0 0,42.51968 42.5197,0 z"
       id="path4542-2"
       inkscape:connector-curvature="0" />
    <path
       style="color:#000000;fill:#000000;fill-opacity:1;fill-rule:nonzero;stroke:none;stroke-width:1px;marker:none;visibility:visible;display:inline;overflow:visible;enable-background:accumulate"
       d="m 822.0472,272.83462 0,14.17323 42.5197,0 0,-14.17323 -14.1732,0 0,-14.17323 14.1732,0 0,-14.17322 c 0,0 -42.5197,0 -42.5197,0 l 0,14.17322 14.1732,0 0,14.17323 z"
       id="path4550-6"
       inkscape:connector-curvature="0" />
    <path
       style="color:#000000;fill:#000000;fill-opacity:1;fill-rule:nonzero;stroke:none;stroke-width:1px;marker:none;visibility:visible;display:inline;overflow:visible;enable-background:accumulate"
       d="m 935.43307,372.04722 42.51968,0 0,-42.51968 -42.51968,0 z m 28.34645,-28.34646 0,14.17323 -14.17323,0 0,-14.17323 z"
       id="path4534-23"
       inkscape:connector-curvature="0"
       sodipodi:nodetypes="cccccccccc" />
    <path
       style="color:#000000;fill:#000000;fill-opacity:1;fill-rule:nonzero;stroke:none;stroke-width:1px;marker:none;visibility:visible;display:inline;overflow:visible;enable-background:accumulate"
       d="m 921.25987,357.87399 -28.3464,0 0,-14.17323 14.1732,0 0,-14.17322 -28.3465,0 0,42.51968 42.5197,0 z"
       id="path4542-6"
       inkscape:connector-curvature="0" />
    <path
       style="color:#000000;fill:#000000;fill-opacity:1;fill-rule:nonzero;stroke:none;stroke-width:1px;marker:none;visibility:visible;display:inline;overflow:visible;enable-background:accumulate"
       d="m 822.04727,357.87399 0,14.17323 42.5197,0 0,-14.17323 -14.1732,0 0,-14.17323 14.1732,0 0,-14.17322 c 0,0 -42.5197,0 -42.5197,0 l 0,14.17322 14.1732,0 0,14.17323 z"
       id="path4550-1"
       inkscape:connector-curvature="0" />
    <path
       style="color:#000000;fill:#000000;fill-opacity:1;fill-rule:nonzero;stroke:none;stroke-width:1px;marker:none;visibility:visible;display:inline;overflow:visible;enable-background:accumulate"
       d="m 935.43299,457.08659 42.51967,0 0,-42.51968 -42.51967,0 z m 28.34645,-28.34646 0,14.17323 -14.17323,0 0,-14.17323 z"
       id="path4534-0"
       inkscape:connector-curvature="0"
       sodipodi:nodetypes="cccccccccc" />
    <path
       style="color:#000000;fill:#000000;fill-opacity:1;fill-rule:nonzero;stroke:none;stroke-width:1px;marker:none;visibility:visible;display:inline;overflow:visible;enable-background:accumulate"
       d="m 921.25979,442.91336 -28.3464,0 0,-14.17323 14.1732,0 0,-14.17322 -28.3465,0 0,42.51968 42.5197,0 z"
       id="path4542-0"
       inkscape:connector-curvature="0" />
    <path
       style="color:#000000;fill:#000000;fill-opacity:1;fill-rule:nonzero;stroke:none;stroke-width:1px;marker:none;visibility:visible;display:inline;overflow:visible;enable-background:accumulate"
       d="m 822.04719,442.91336 0,14.17323 42.5197,0 0,-14.17323 -14.1732,0 0,-14.17323 14.1732,0 0,-14.17322 c 0,0 -42.5197,0 -42.5197,0 l 0,14.17322 14.1732,0 0,14.17323 z"
       id="path4550-62"
       inkscape:connector-curvature="0" />
    <path
       style="color:#000000;fill:#000000;fill-opacity:1;fill-rule:nonzero;stroke:none;stroke-width:1px;marker:none;visibility:visible;display:inline;overflow:visible;enable-background:accumulate"
       d="m 977.95283,272.83458 -42.51966,0 0,42.5197 42.51966,0 z m -28.3465,28.3465 0,-14.1733 14.1732,0 0,14.1733 z"
       id="path4534-2-9-2"
       inkscape:connector-curvature="0"
       sodipodi:nodetypes="cccccccccc" />
    <path
       style="color:#000000;fill:#000000;fill-opacity:1;fill-rule:nonzero;stroke:none;stroke-width:1px;marker:none;visibility:visible;display:inline;overflow:visible;enable-background:accumulate"
       d="m 935.43314,372.04722 28.34639,0 0,14.17323 -14.1732,0 0,14.17321 28.3465,0 0,-42.51967 -42.51969,0 z"
       id="path4542-8-0-3"
       inkscape:connector-curvature="0" />
    <path
       style="color:#000000;fill:#000000;fill-opacity:1;fill-rule:nonzero;stroke:none;stroke-width:1px;marker:none;visibility:visible;display:inline;overflow:visible;enable-background:accumulate"
       d="m 977.95273,457.08659 0,-14.17323 -42.51966,0 0,14.17323 14.17316,0 0,14.17323 -14.17316,0 0,14.17322 c 0,0 42.51966,0 42.51966,0 l 0,-14.17322 -14.1732,0 0,-14.17323 z"
       id="path4550-8-6-2"
       inkscape:connector-curvature="0" />
    <path
       style="color:#000000;fill:#000000;fill-opacity:1;fill-rule:nonzero;stroke:none;stroke-width:1px;marker:none;visibility:visible;display:inline;overflow:visible;enable-background:accumulate"
       d="m 935.43307,201.96848 14.17326,0 0,28.3465 c 0,0 14.1732,0 14.1732,0 l 0,-28.3465 c 0,0 14.1732,0 14.1732,0 l 0,-14.1732 -42.51966,0 z"
       id="path4526-5-9"
       inkscape:connector-curvature="0" />
    <path
       style="color:#000000;fill:#000000;fill-opacity:1;fill-rule:nonzero;stroke:none;stroke-width:1px;marker:none;visibility:visible;display:inline;overflow:visible;enable-background:accumulate"
       d="m 921.25991,272.83459 -42.51966,0 0,42.5197 42.51966,0 z m -28.3465,28.3465 0,-14.1733 14.1732,0 0,14.1733 z"
       id="path4534-2-9-2-9"
       inkscape:connector-curvature="0"
       sodipodi:nodetypes="cccccccccc" />
    <path
       style="color:#000000;fill:#000000;fill-opacity:1;fill-rule:nonzero;stroke:none;stroke-width:1px;marker:none;visibility:visible;display:inline;overflow:visible;enable-background:accumulate"
       d="m 878.74022,372.04723 28.34639,0 0,14.17323 -14.1732,0 0,14.17321 28.3465,0 0,-42.51967 -42.51969,0 z"
       id="path4542-8-0-3-8"
       inkscape:connector-curvature="0" />
    <path
       style="color:#000000;fill:#000000;fill-opacity:1;fill-rule:nonzero;stroke:none;stroke-width:1px;marker:none;visibility:visible;display:inline;overflow:visible;enable-background:accumulate"
       d="m 921.25981,457.0866 0,-14.17323 -42.51966,0 0,14.17323 14.17316,0 0,14.17323 -14.17316,0 0,14.17322 c 0,0 42.51966,0 42.51966,0 l 0,-14.17322 -14.1732,0 0,-14.17323 z"
       id="path4550-8-6-2-8"
       inkscape:connector-curvature="0" />
    <path
       style="color:#000000;fill:#000000;fill-opacity:1;fill-rule:nonzero;stroke:none;stroke-width:1px;marker:none;visibility:visible;display:inline;overflow:visible;enable-background:accumulate"
       d="m 878.74015,201.96848 14.17326,0 0,28.34651 c 0,0 14.1732,0 14.1732,0 l 0,-28.34651 c 0,0 14.1732,0 14.1732,0 l 0,-14.1732 -42.51966,0 z"
       id="path4526-5-9-4"
       inkscape:connector-curvature="0" />
    <path
       style="color:#000000;fill:#000000;fill-opacity:1;fill-rule:nonzero;stroke:none;stroke-width:1px;marker:none;visibility:visible;display:inline;overflow:visible;enable-background:accumulate"
       d="m 864.56693,272.83461 -42.5196,0 0,42.5197 42.5196,0 z m -28.3465,28.3465 0,-14.1733 14.1732,0 0,14.1733 z"
       id="path4534-2-9-2-3"
       inkscape:connector-curvature="0"
       sodipodi:nodetypes="cccccccccc" />
    <path
       style="color:#000000;fill:#000000;fill-opacity:1;fill-rule:nonzero;stroke:none;stroke-width:1px;marker:none;visibility:visible;display:inline;overflow:visible;enable-background:accumulate"
       d="m 822.04723,372.04725 28.3464,0 0,14.17323 -14.1732,0 0,14.17321 28.3465,0 0,-42.51967 -42.5197,0 z"
       id="path4542-8-0-3-1"
       inkscape:connector-curvature="0" />
    <path
       style="color:#000000;fill:#000000;fill-opacity:1;fill-rule:nonzero;stroke:none;stroke-width:1px;marker:none;visibility:visible;display:inline;overflow:visible;enable-background:accumulate"
       d="m 864.56683,457.08662 0,-14.17323 -42.5196,0 0,14.17323 14.1731,0 0,14.17323 -14.1731,0 0,14.17322 c 0,0 42.5196,0 42.5196,0 l 0,-14.17322 -14.1732,0 0,-14.17323 z"
       id="path4550-8-6-2-4"
       inkscape:connector-curvature="0" />
    <path
       style="color:#000000;fill:#000000;fill-opacity:1;fill-rule:nonzero;stroke:none;stroke-width:1px;marker:none;visibility:visible;display:inline;overflow:visible;enable-background:accumulate"
       d="m 822.04723,201.96851 14.1732,0 0,28.3465 c 0,0 14.1732,0 14.1732,0 l 0,-28.3465 c 0,0 14.1732,0 14.1732,0 l 0,-14.1732 -42.5196,0 z"
       id="path4526-5-9-8"
       inkscape:connector-curvature="0" />
    <path
       style="color:#000000;fill:#000000;fill-opacity:1;fill-rule:nonzero;stroke:none;stroke-width:1px;marker:none;visibility:visible;display:inline;overflow:visible;enable-background:accumulate"
       d="m 1062.9921,216.14178 0,-14.1733 28.3465,0 c 0,0 0,-14.1732 0,-14.1732 l -28.3465,0 c 0,0 0,-14.17322 0,-14.17322 l -14.1732,0 0,42.51972 z"
       id="path4526-9"
       inkscape:connector-curvature="0" />
    <path
       style="color:#000000;fill:#000000;fill-opacity:1;fill-rule:nonzero;stroke:none;stroke-width:1px;marker:none;visibility:visible;display:inline;overflow:visible;enable-background:accumulate"
       d="m 1048.8189,258.66147 0,42.51968 42.5197,0 0,-42.51968 z m 28.3465,28.34645 -14.1733,0 0,-14.17323 14.1733,0 z"
       id="path4534-2"
       inkscape:connector-curvature="0"
       sodipodi:nodetypes="cccccccccc" />
    <path
       style="color:#000000;fill:#000000;fill-opacity:1;fill-rule:nonzero;stroke:none;stroke-width:1px;marker:none;visibility:visible;display:inline;overflow:visible;enable-background:accumulate"
       d="m 1062.9921,386.2206 0,-28.3464 14.1733,0 0,14.1732 14.1732,0 0,-28.3465 -42.5197,0 0,42.5197 z"
       id="path4542-1"
       inkscape:connector-curvature="0" />
    <path
       style="color:#000000;fill:#000000;fill-opacity:1;fill-rule:nonzero;stroke:none;stroke-width:1px;marker:none;visibility:visible;display:inline;overflow:visible;enable-background:accumulate"
       d="m 1062.9921,428.7402 -14.1732,0 0,42.5197 14.1732,0 0,-14.1732 14.1733,0 0,14.1732 14.1732,0 c 0,0 0,-42.5197 0,-42.5197 l -14.1732,0 0,14.1732 -14.1733,0 z"
       id="path4550-3"
       inkscape:connector-curvature="0" />
    <path
       style="color:#000000;fill:#000000;fill-opacity:1;fill-rule:nonzero;stroke:none;stroke-width:1px;marker:none;visibility:visible;display:inline;overflow:visible;enable-background:accumulate"
       d="m 1162.2048,46.062969 -14.1733,0 0,-28.34645 c 0,0 -14.1732,0 -14.1732,0 l 0,28.34645 c 0,0 -14.1733,0 -14.1733,0 l 0,14.17323 42.5198,0 z"
       id="path4526-41"
       inkscape:connector-curvature="0" />
    <path
       style="color:#000000;fill:#000000;fill-opacity:1;fill-rule:nonzero;stroke:none;stroke-width:1px;marker:none;visibility:visible;display:inline;overflow:visible;enable-background:accumulate"
       d="m 1119.6851,173.62203 42.5197,0 0,-42.51969 -42.5197,0 z m 28.3465,-28.34647 0,14.17324 -14.1733,0 0,-14.17324 z"
       id="path4534-6"
       inkscape:connector-curvature="0"
       sodipodi:nodetypes="cccccccccc" />
    <path
       style="color:#000000;fill:#000000;fill-opacity:1;fill-rule:nonzero;stroke:none;stroke-width:1px;marker:none;visibility:visible;display:inline;overflow:visible;enable-background:accumulate"
       d="m 1091.3387,74.409408 0,28.346402 -14.1733,0 0,-14.173202 -14.1732,0 0,28.346502 42.5197,0 0,-42.519702 z"
       id="path4542-8-0-3-1-8"
       inkscape:connector-curvature="0" />
    <path
       style="color:#000000;fill:#000000;fill-opacity:1;fill-rule:nonzero;stroke:none;stroke-width:1px;marker:none;visibility:visible;display:inline;overflow:visible;enable-background:accumulate"
       d="m 1204.7245,116.92908 14.1732,0 0,-42.519695 -14.1732,0 0,14.173198 -14.1733,0 0,-14.173198 -14.1732,0 c 0,0 0,42.519695 0,42.519695 l 14.1732,0 0,-14.1732 14.1733,0 z"
       id="path4550-8-6-6"
       inkscape:connector-curvature="0" />
    <path
       style="fill:#000000;stroke:none;stroke-width:1px;stroke-linecap:butt;stroke-linejoin:miter;stroke-opacity:1;color:#000000;fill-opacity:1;fill-rule:nonzero;marker:none;visibility:visible;display:inline;overflow:visible;enable-background:accumulate"
       d="m 1062.9921,159.4488 0,325.98425 -14.1732,0 0,-325.98425 z"
       id="path4922"
       inkscape:connector-curvature="0" />
    <text
       xml:space="preserve"
       style="font-size:10px;font-style:normal;font-variant:normal;font-weight:normal;font-stretch:normal;line-height:125%;letter-spacing:0px;word-spacing:0px;fill:#000000;fill-opacity:1;stroke:none;font-family:Nimbus Sans L;-inkscape-font-specification:Nimbus Sans L"
       x="1205.7144"
       y="228.07648"
       id="text4930"
       sodipodi:linespacing="125%"><tspan
         sodipodi:role="line"
         id="tspan4932"
         x="1205.7144"
         y="228.07648"
         style="font-size:48px;-inkscape-font-specification:Andale Mono;font-family:Andale Mono;font-weight:normal;font-style:normal;font-stretch:normal;font-variant:normal">lyka</tspan><tspan
         sodipodi:role="line"
         x="1205.7144"
         y="288.07648"
         style="font-size:48px;-inkscape-font-specification:Andale Mono;font-family:Andale Mono;font-weight:normal;font-style:normal;font-stretch:normal;font-variant:normal"
         id="tspan4934">rste</tspan><tspan
         sodipodi:role="line"
         x="1205.7144"
         y="348.07648"
         style="font-size:48px;-inkscape-font-specification:Andale Mono;font-family:Andale Mono;font-weight:normal;font-style:normal;font-stretch:normal;font-variant:normal"
         id="tspan4936">nfbo</tspan><tspan
         sodipodi:role="line"
         x="1205.7144"
         y="408.07648"
         style="font-size:48px;-inkscape-font-specification:Andale Mono;font-family:Andale Mono;font-weight:normal;font-style:normal;font-stretch:normal;font-variant:normal"
         id="tspan4938">ghdu</tspan></text>
  </g>
</svg>
