<?xml version="1.0" encoding="UTF-8" standalone="no"?>
<!-- Created with Inkscape (http://www.inkscape.org/) -->

<svg
   xmlns:dc="http://purl.org/dc/elements/1.1/"
   xmlns:cc="http://creativecommons.org/ns#"
   xmlns:rdf="http://www.w3.org/1999/02/22-rdf-syntax-ns#"
   xmlns:svg="http://www.w3.org/2000/svg"
   xmlns="http://www.w3.org/2000/svg"
   xmlns:sodipodi="http://sodipodi.sourceforge.net/DTD/sodipodi-0.dtd"
   xmlns:inkscape="http://www.inkscape.org/namespaces/inkscape"
   width="708.66138"
   height="1062.9921"
   id="svg2"
   version="1.1"
   inkscape:version="0.48.4 r9939"
   sodipodi:docname="dred_fostr.ink.svg">
  <defs
     id="defs4" />
  <sodipodi:namedview
     id="base"
     pagecolor="#ffffff"
     bordercolor="#666666"
     borderopacity="1.0"
     inkscape:pageopacity="0.0"
     inkscape:pageshadow="2"
     inkscape:zoom="0.60811183"
     inkscape:cx="56.668878"
     inkscape:cy="551.20333"
     inkscape:document-units="mm"
     inkscape:current-layer="g7584"
     showgrid="false"
     showguides="true"
     inkscape:guide-bbox="true"
     inkscape:window-width="1855"
     inkscape:window-height="1056"
     inkscape:window-x="65"
     inkscape:window-y="24"
     inkscape:window-maximized="1"
     units="mm" />
  <metadata
     id="metadata7">
    <rdf:RDF>
      <cc:Work
         rdf:about="">
        <dc:format>image/svg+xml</dc:format>
        <dc:type
           rdf:resource="http://purl.org/dc/dcmitype/StillImage" />
        <dc:title></dc:title>
      </cc:Work>
    </rdf:RDF>
  </metadata>
  <g
     inkscape:groupmode="layer"
     id="layer2"
     inkscape:label="bg"
     transform="translate(0,10.629915)">
    <path
       style="color:#000000;fill:#304c30;fill-opacity:1;fill-rule:nonzero;stroke:none;stroke-width:1px;marker:none;visibility:visible;display:inline;overflow:visible;enable-background:accumulate"
       d="M 10.938363,1038.6384 8.0812207,-2.7603699 703.86729,1.9437636 705.29586,96.229479 C 645.88443,113.1854 541.66995,178.36566 528.57142,295.21933 512.82452,435.69943 637.67101,522.72019 702.0203,526.94376 l -7.73459,511.84704 z"
       id="path3858"
       inkscape:connector-curvature="0"
       sodipodi:nodetypes="ccccsccc" />
    <g
       transform="translate(-46.692142,9.9664846)"
       style="display:inline"
       id="g7584">
      <path
         sodipodi:nodetypes="cccccccccccccccccccccccccccccccccc"
         inkscape:connector-curvature="0"
         id="path5674-6-9"
         d="m 730.32536,14.173209 -2.3458,33.55796 -12.9053,14.0144 -9.19698,-26.51736 10.6158,-6.43204 1.70016,11.53052 -19.57028,22.32904 -5.1208,-27.22288 -12.27436,7.0866 -1.99356,13.32248 -4.30964,12.29316 -7.67824,0.3692 -9.5066,-7.392 -12.32244,8.68648 1.68228,17.319485 11.38924,5.60912 10.34848,-8.10524 11.39056,0.338 0.99996,14.25244 -11.85432,18.963236 -13.94856,2.83116 -6.15834,8.38408 10.3563,6.97691 12.68766,-1.8628 8.91728,7.22708 12.27436,-7.0866 7.04774,-7.99955 -2.32268,-25.64276 12.95148,-17.960916 5.58632,6.66044 9.28668,-0.57404 -7.25424,16.026916 3.26272,10.40532 8.26512,11.998"
         style="color:#000000;fill:none;stroke:#e29500;stroke-width:8.85826778000000026;stroke-linecap:butt;stroke-linejoin:miter;stroke-miterlimit:4;stroke-opacity:1;stroke-dasharray:none;stroke-dashoffset:0;marker:none;visibility:visible;display:inline;overflow:visible;enable-background:accumulate;fill-opacity:0.66666669000000001" />
      <path
         sodipodi:nodetypes="cccccccccccccccccccccccccccccccccccccc"
         inkscape:connector-curvature="0"
         id="path5811-0-1"
         d="m 730.32536,141.73226 -10.70252,14.34532 0.97368,16.00868 6.57432,-1.80556 1.12272,11.72492 -27.76472,12.20588 -3.5126,-15.45408 11.75664,-3.26248 -0.94144,-11.51344 -14.145,1.22416 -12.4586,4.87308 -7.1892,7.74344 -26.11356,22.3006 5.76436,16.63044 8.09232,-11.21744 5.03564,6.32888 7.34256,-9.1534 6.95396,13.43508 0.114,10.62528 -1.99368,13.32248 -4.30964,12.29316 -7.67824,0.3692 -9.5066,-7.392 -12.32244,8.68648 1.68228,17.31948 11.38924,5.60912 10.34848,-8.10524 11.39056,0.338 13.2744,-7.0076 10.70252,-14.34532 -0.97364,-16.00872 -6.57432,1.8056 -1.12272,-11.72492 27.76472,-12.20588 3.51256,15.45408 -11.75664,3.26244 0.94144,11.51348 14.3294,15.16264"
         style="color:#000000;fill:none;stroke:#e29500;stroke-width:8.85826778000000026;stroke-linecap:butt;stroke-linejoin:miter;stroke-miterlimit:4;stroke-opacity:1;stroke-dasharray:none;stroke-dashoffset:0;marker:none;visibility:visible;display:inline;overflow:visible;enable-background:accumulate;fill-opacity:0.66666669000000001" />
      <path
         sodipodi:nodetypes="cccccccccccccccccccccccccccccccc"
         inkscape:connector-curvature="0"
         id="path17857-1-1"
         d="m 730.32536,269.29132 -10.49548,19.7478 4.52244,13.4954 -4.18168,9.52532 -11.22032,-5.48036 -4.7306,-11.9192 -10.71752,-4.10912 -12.27432,7.0866 -13.64636,46.4196 -14.0942,3.46712 2.89108,-13.93632 -9.00684,-6.48264 10.62832,-11.34144 23.22796,24.39332 4e-5,14.17324 -1.99364,13.32248 -4.30964,12.29316 -7.67824,0.3692 -9.5066,-7.392 -12.32244,8.68648 1.68228,17.31948 11.38924,5.60912 10.34848,-8.10524 11.39056,0.338 13.27436,-7.00756 10.49544,-19.7478 -4.52244,-13.4954 4.18172,-9.52532 11.22028,5.48036 4.73064,11.9192 10.71752,4.10912 -4e-5,14.1732"
         style="color:#000000;fill:none;stroke:#e29500;stroke-width:8.85826778000000026;stroke-linecap:butt;stroke-linejoin:miter;stroke-miterlimit:4;stroke-opacity:1;stroke-dasharray:none;stroke-dashoffset:0;marker:none;visibility:visible;display:inline;overflow:visible;enable-background:accumulate;fill-opacity:0.66666669000000001" />
    </g>
    <path
       style="color:#000000;fill:#000000;fill-opacity:0.66666667;fill-rule:nonzero;stroke:none;stroke-width:1px;marker:none;visibility:visible;display:inline;overflow:visible;enable-background:accumulate"
       d="M 7.9586679,273.91094 C 34.222635,242.59621 75.402494,202.507 91.564934,236.85219 c 16.162436,34.34518 10.101526,42.4264 86.873116,27.27412 76.7716,-15.15229 124.24876,149.50257 116.16754,43.43655 -8.08122,-106.06601 -55.55839,-162.63456 56.56854,-111.11678 112.12694,51.51778 15.15229,144.45182 85.86297,187.88838 70.71068,43.43656 65.65992,-25.25382 150.51274,-22.22336 84.85281,3.03045 61.61929,-77.78173 117.17768,-83.84265 l 0.50509,83.5112 c -17.51931,-10.48416 -78.48672,76.69801 -137.37239,72.44231 -58.43375,-4.22304 -75.49612,40.59256 -70.97158,58.57763 12.6269,50.19195 145.39883,-6.09249 207.46008,-51.24946 l -0.59189,44.70911 c -13.39636,3.38855 -96.48344,41.19942 -96.15093,65.07913 0.65601,47.11292 36.29814,67.06687 96.11147,53.20935 l -3.03045,55.55838 C 628.96609,654.04518 553.20464,569.19237 463.30107,560.101 373.39749,551.00963 299.65636,635.86244 177.4279,658.0858 55.199443,680.30915 29.94563,646.97412 29.94563,631.82183 c 0,-15.15228 146.84704,-60.37439 69.996384,-117.27051 -29.45795,-21.8091 -15.67257,37.06757 -92.156661,8.48733 l 0.2958677,-73.2176 C 31.50907,507.42948 44.447386,476.7212 58.389677,431.2771 c 11.989348,-39.07859 42.789743,28.83705 77.520653,-0.26618 36.91575,-30.93404 59.25928,-46.02933 48.7149,-59.1771 C 131.02942,305.00523 47.280066,262.46492 36.894145,305.39899 22.154058,366.33263 6.9485156,357.7536 6.9485156,357.7536 z"
       id="path3868"
       inkscape:connector-curvature="0"
       sodipodi:nodetypes="cssssssccssccsccssssccsssscc" />
    <path
       style="color:#000000;fill:#0c0b0b;fill-opacity:1;fill-rule:nonzero;stroke:none;stroke-width:1px;marker:none;visibility:visible;display:inline;overflow:visible;enable-background:accumulate"
       d="m 69.861524,1025.5239 65.139966,-826.04736 98.99495,-110.106631 13.13198,-54.548233 33.33504,-18.182745 19.1929,21.213203 21.2132,60.609155 65.65991,101.015251 67.75624,831.45706 z"
       id="path3823"
       inkscape:connector-curvature="0"
       sodipodi:nodetypes="cccccccccc" />
    <path
       style="fill:#000000;fill-opacity:1;stroke:#000000;stroke-width:1px;stroke-linecap:butt;stroke-linejoin:miter;stroke-opacity:1"
       d="m 5.4481517,753.44412 510.2661283,23.20378 -8.57143,22.85714 -15.71428,7.14286 7.14285,14.28571 -7.14285,14.28572 -12.85715,12.85714 2.14287,195.71423 -475.2661356,3.939 z"
       id="path3821"
       inkscape:connector-curvature="0"
       sodipodi:nodetypes="cccccccccc" />
    <path
       style="color:#000000;fill:#000000;fill-opacity:1;fill-rule:nonzero;stroke:none;stroke-width:1px;marker:none;visibility:visible;display:inline;overflow:visible;enable-background:accumulate"
       d="m 610,658.07647 92.85713,-85 10e-6,467.14283 -82.14286,0.7143 -3.57143,-327.14284 -14.28571,-27.14286 12.85714,-5.71429 -11.42857,-14.28571 z"
       id="path3831"
       inkscape:connector-curvature="0"
       sodipodi:nodetypes="ccccccccc" />
  </g>
  <g
     inkscape:label="Layer 1"
     inkscape:groupmode="layer"
     id="layer1"
     transform="translate(0,10.629915)">
    <path
       style="fill:#220022;fill-opacity:0.66666667;stroke:#000000;stroke-width:3.54330707;stroke-linecap:butt;stroke-linejoin:miter;stroke-miterlimit:4;stroke-opacity:1;stroke-dasharray:none"
       d="m 178.59982,181.10238 134.97414,53.29685 -59.65484,92.15667 32.3667,48.76827 -25.42551,79.19532 75.69341,44.85973 21.13102,-1.94686 50.7627,-55.35015 -30.08924,-66.65475 49.46251,-58.34136 -55.0607,-75.28996 168.64258,-84.74873 155.66391,152.74537 -42.03348,22.93936 18.56323,131.80858 -76.81498,58.59285 -25.78748,127.54824 -181.85585,68.98197 -58.20113,-2.86993 L 124.03904,609.78691 108.73849,495.8959 48.060651,444.89816 67.450594,329.84974 34.923008,284.27569 z"
       id="path2985"
       inkscape:connector-curvature="0"
       sodipodi:nodetypes="ccccccccccccccccccccccccc" />
    <path
       style="fill:none;stroke:#000000;stroke-width:1px;stroke-linecap:butt;stroke-linejoin:miter;stroke-opacity:1"
       d="M 178.43805,182.05141 67.826344,330.03877"
       id="path3777"
       inkscape:connector-curvature="0"
       sodipodi:nodetypes="cc" />
    <path
       style="fill:none;stroke:#000000;stroke-width:1px;stroke-linecap:butt;stroke-linejoin:miter;stroke-opacity:1"
       d="m 178.69058,181.16753 -68.54551,315.63434 224.5305,218.75058"
       id="path3779"
       inkscape:connector-curvature="0"
       sodipodi:nodetypes="ccc" />
    <path
       style="fill:none;stroke:#000000;stroke-width:1px;stroke-linecap:butt;stroke-linejoin:miter;stroke-opacity:1"
       d="m 179.19567,180.91499 73.99366,146.85092"
       id="path3781"
       inkscape:connector-curvature="0"
       sodipodi:nodetypes="cc" />
    <path
       style="fill:none;stroke:#000000;stroke-width:1px;stroke-linecap:butt;stroke-linejoin:miter;stroke-opacity:1"
       d="m 178.56431,181.42006 27.14786,316.05148 114.76,148.73753"
       id="path3785"
       inkscape:connector-curvature="0"
       sodipodi:nodetypes="ccc" />
    <path
       style="fill:none;stroke:#000000;stroke-width:1px;stroke-linecap:butt;stroke-linejoin:miter;stroke-opacity:1"
       d="M 427.26478,316.60709 540.97768,156.91677 654.28571,332.36218"
       id="path3787"
       inkscape:connector-curvature="0"
       sodipodi:nodetypes="ccc" />
    <path
       style="fill:none;stroke:#000000;stroke-width:1px;stroke-linecap:butt;stroke-linejoin:miter;stroke-opacity:1"
       d="M 48.633451,445.44869 178.81686,181.42006 260.26041,451.00453 315.8188,559.09085"
       id="path3795"
       inkscape:connector-curvature="0"
       sodipodi:nodetypes="cccc" />
    <path
       style="fill:none;stroke:#000000;stroke-width:1px;stroke-linecap:butt;stroke-linejoin:miter;stroke-opacity:1"
       d="m 110.14506,496.54933 49.35263,-12.71485 46.71956,14.64721 17.17258,-67.42768 37.12311,24.24366"
       id="path3797"
       inkscape:connector-curvature="0"
       sodipodi:nodetypes="ccccc" />
    <path
       style="fill:none;stroke:#000000;stroke-width:1px;stroke-linecap:butt;stroke-linejoin:miter;stroke-opacity:1"
       d="m 178.56432,181.04125 44.32044,249.76023 94.07726,169.77742"
       id="path3799"
       inkscape:connector-curvature="0"
       sodipodi:nodetypes="ccc" />
    <path
       style="fill:none;stroke:#000000;stroke-width:1px;stroke-linecap:butt;stroke-linejoin:miter;stroke-opacity:1"
       d="M 178.31178,182.05141 159.75023,484.84464 325.75752,689.16593"
       id="path3801"
       inkscape:connector-curvature="0"
       sodipodi:nodetypes="ccc" />
    <path
       style="fill:none;stroke:#000000;stroke-width:1px;stroke-linecap:butt;stroke-linejoin:miter;stroke-opacity:1"
       d="M 407.85714,443.79075 542.14285,156.6479 672.85714,467.36218"
       id="path3808"
       inkscape:connector-curvature="0"
       sodipodi:nodetypes="ccc" />
    <path
       style="fill:none;stroke:#000000;stroke-width:1px;stroke-linecap:butt;stroke-linejoin:miter;stroke-opacity:1"
       d="m 541.42857,157.36218 55,363.57143 -207.85715,185"
       id="path3810"
       inkscape:connector-curvature="0"
       sodipodi:nodetypes="ccc" />
    <path
       style="fill:none;stroke:#000000;stroke-width:1px;stroke-linecap:butt;stroke-linejoin:miter;stroke-opacity:1"
       d="M 387.14285,617.36218 488.57142,490.21933 541.42857,157.36218"
       id="path3812"
       inkscape:connector-curvature="0"
       sodipodi:nodetypes="ccc" />
    <path
       style="fill:none;stroke:#000000;stroke-width:1px;stroke-linecap:butt;stroke-linejoin:miter;stroke-opacity:1"
       d="M 408.57142,443.79075 460,435.21933 487.85714,491.6479 540,479.50504 l 55.71428,42.14285"
       id="path3814"
       inkscape:connector-curvature="0"
       sodipodi:nodetypes="ccccc" />
    <path
       style="fill:none;stroke:#000000;stroke-width:1px;stroke-linecap:butt;stroke-linejoin:miter;stroke-opacity:1"
       d="m 380,670.21933 161.42857,-190 -0.71429,-324.28572"
       id="path3816"
       inkscape:connector-curvature="0"
       sodipodi:nodetypes="ccc" />
    <path
       style="fill:none;stroke:#000000;stroke-width:1px;stroke-linecap:butt;stroke-linejoin:miter;stroke-opacity:1"
       d="M 367.85714,566.6479 460,435.93361 541.42857,158.79075"
       id="path3818"
       inkscape:connector-curvature="0"
       sodipodi:nodetypes="ccc" />
    <g
       id="g3803"
       transform="translate(-35.714286,-11.428571)">
      <path
         inkscape:connector-curvature="0"
         id="path2987"
         d="m 377.79705,834.16923 c 0,0 -44.44671,-213.14218 -29.29442,-261.62951 15.15229,-48.48732 31.31473,-65.65991 23.23351,-87.88327 -8.08122,-22.22335 1.01015,-37.37564 15.15228,-34.34518 14.14214,3.03045 8.08123,24.24366 5.05077,45.45686 -3.03046,21.2132 41.41625,61.61931 40.4061,108.08632 -1.01015,46.46702 -1.01015,233.34524 -1.01015,233.34524 0,0 -19.1929,-43.43656 -53.53809,-3.03046 z"
         style="fill:#ff0000;fill-opacity:1;stroke:none" />
      <path
         sodipodi:nodetypes="zzz"
         inkscape:connector-curvature="0"
         id="path3757"
         d="m 376.06105,465.4694 c -8.24362,0.4053 -7.20734,11.18689 0.25698,10.91369 7.46434,-0.27322 7.98665,-11.31899 -0.25698,-10.91369 z"
         style="fill:#000000;fill-opacity:1;stroke:none" />
      <path
         sodipodi:nodetypes="zzz"
         inkscape:connector-curvature="0"
         id="path3757-2"
         d="m 388.63379,464.14428 c -7.80224,0.3819 -6.82144,10.54068 0.24323,10.28327 7.06467,-0.25743 7.55901,-10.66516 -0.24323,-10.28327 z"
         style="fill:#000000;fill-opacity:1;stroke:none" />
    </g>
  </g>
</svg>
