<?xml version="1.0" encoding="UTF-8" standalone="no"?>
<!-- Created with Inkscape (http://www.inkscape.org/) -->

<svg
   xmlns:dc="http://purl.org/dc/elements/1.1/"
   xmlns:cc="http://creativecommons.org/ns#"
   xmlns:rdf="http://www.w3.org/1999/02/22-rdf-syntax-ns#"
   xmlns:svg="http://www.w3.org/2000/svg"
   xmlns="http://www.w3.org/2000/svg"
   xmlns:sodipodi="http://sodipodi.sourceforge.net/DTD/sodipodi-0.dtd"
   xmlns:inkscape="http://www.inkscape.org/namespaces/inkscape"
   width="907.08661"
   height="907.08661"
   id="svg30209"
   version="1.1"
   inkscape:version="0.48.3.1 r9886"
   sodipodi:docname="rata.ink.svg">
  <defs
     id="defs30211" />
  <sodipodi:namedview
     id="base"
     pagecolor="#ffffff"
     bordercolor="#666666"
     borderopacity="1.0"
     inkscape:pageopacity="0.0"
     inkscape:pageshadow="2"
     inkscape:zoom="0.49497475"
     inkscape:cx="432.05905"
     inkscape:cy="465.37331"
     inkscape:document-units="mm"
     inkscape:current-layer="layer1"
     showgrid="false"
     units="mm"
     inkscape:window-width="1024"
     inkscape:window-height="576"
     inkscape:window-x="0"
     inkscape:window-y="24"
     inkscape:window-maximized="1" />
  <metadata
     id="metadata30214">
    <rdf:RDF>
      <cc:Work
         rdf:about="">
        <dc:format>image/svg+xml</dc:format>
        <dc:type
           rdf:resource="http://purl.org/dc/dcmitype/StillImage" />
        <dc:title />
      </cc:Work>
    </rdf:RDF>
  </metadata>
  <g
     inkscape:label="peks"
     inkscape:groupmode="layer"
     id="layer1"
     transform="translate(0,-145.27559)"
     style="display:inline">
    <text
       xml:space="preserve"
       style="font-size:24px;font-style:normal;font-variant:normal;font-weight:normal;font-stretch:normal;line-height:125%;letter-spacing:0px;word-spacing:0px;fill:#000000;fill-opacity:1;stroke:none;font-family:Nimbus Sans L;-inkscape-font-specification:Nimbus Sans L"
       x="70"
       y="407.08661"
       id="text30236"
       sodipodi:linespacing="125%"
       transform="translate(0,145.27559)"><tspan
         sodipodi:role="line"
         id="tspan30238"
         x="70"
         y="407.08661" /></text>
    <g
       id="g37199"
       transform="translate(6.0609153,-12.121831)">
      <path
         sodipodi:nodetypes="zzzzzsz"
         inkscape:connector-curvature="0"
         id="path30308"
         d="m 357.193,199.44682 c 29.79989,-0.50509 66.67007,15.15228 71.72084,44.44671 5.05076,29.29442 4.0406,61.6193 -11.11169,83.84266 -15.15229,22.22336 -10.09353,52.30085 -52.52793,51.51778 -42.4344,-0.78307 -43.6891,-37.1231 -55.55839,-54.54824 -11.86929,-17.42514 -17.62801,-58.7164 -11.11197,-84.09519 4.79813,-18.68782 28.78925,-40.65864 58.58914,-41.16372 z"
         style="fill:none;stroke:#000000;stroke-width:7.08661413;stroke-linecap:butt;stroke-linejoin:miter;stroke-miterlimit:4;stroke-opacity:1;stroke-dasharray:none" />
      <path
         inkscape:connector-curvature="0"
         id="path30310"
         d="m 343.05086,344.90878 42.42641,-1.01015"
         style="fill:none;stroke:#000000;stroke-width:3.54330707;stroke-linecap:butt;stroke-linejoin:miter;stroke-miterlimit:4;stroke-opacity:1;stroke-dasharray:none" />
      <path
         inkscape:connector-curvature="0"
         id="path30312"
         d="m 358.20315,321.67527 11.11168,-1.01015"
         style="fill:none;stroke:#000000;stroke-width:3.54330707;stroke-linecap:butt;stroke-linejoin:miter;stroke-miterlimit:4;stroke-opacity:1;stroke-dasharray:none" />
      <path
         inkscape:connector-curvature="0"
         id="path30314"
         d="m 316.78689,290.36054 32.32488,-1.01015"
         style="fill:none;stroke:#000000;stroke-width:3.54330707;stroke-linecap:butt;stroke-linejoin:miter;stroke-miterlimit:4;stroke-opacity:1;stroke-dasharray:none" />
      <path
         inkscape:connector-curvature="0"
         id="path30316"
         d="m 379.41635,291.3707 34.34519,-1.01015"
         style="fill:none;stroke:#000000;stroke-width:3.54330707;stroke-linecap:butt;stroke-linejoin:miter;stroke-miterlimit:4;stroke-opacity:1;stroke-dasharray:none" />
      <path
         sodipodi:nodetypes="cscsc"
         inkscape:connector-curvature="0"
         id="path30318"
         d="m 338.25265,254.71279 c 0,0 6.60304,-15.77068 25.53698,-15.77068 19.71328,0 24.97064,15.77068 24.97064,15.77068 0,0 -6.89759,13.2025 -24.89667,13.2025 -17.99907,0 -25.61095,-13.2025 -25.61095,-13.2025 z"
         style="fill:none;stroke:#000000;stroke-width:3.54330707;stroke-linecap:butt;stroke-linejoin:miter;stroke-miterlimit:4;stroke-opacity:1;stroke-dasharray:none" />
      <path
         sodipodi:nodetypes="zzz"
         inkscape:connector-curvature="0"
         id="path30828"
         d="m 363.17995,245.2862 c 11.88755,-0.0956 10.81582,15.95849 0.32651,16.03246 -10.48931,0.074 -12.21405,-15.93682 -0.32651,-16.03246 z"
         style="fill:none;stroke:#000000;stroke-width:10.62992096;stroke-linecap:butt;stroke-linejoin:miter;stroke-miterlimit:4;stroke-opacity:1;stroke-dasharray:none" />
    </g>
    <g
       id="g37208">
      <path
         sodipodi:nodetypes="ccssszscc"
         inkscape:connector-curvature="0"
         id="path30832"
         d="m 597.69852,347.65208 -1.51523,39.90102 c 0,0 -2.02031,117.68278 -2.02031,131.82492 0,14.14213 -14.14213,17.17259 -14.14213,5.05076 0,-9.09137 -9.09137,-8.08122 -7.57615,0 1.11696,5.9571 -2.02156,16.40362 12.62691,17.17259 14.64846,0.76898 17.67767,-10.10153 17.67767,-20.70813 0,-17.17259 1.01015,-139.90613 1.01015,-139.90613 z"
         style="fill:#000000;fill-opacity:1;stroke:none" />
      <path
         sodipodi:nodetypes="zccccz"
         inkscape:connector-curvature="0"
         id="path30830"
         d="m 597.6628,380.6762 c 59.1141,1.87622 101.03846,21.91111 104.18419,69.07394 -23.19281,-20.04342 -45.22667,-17.94032 -73.27556,-1.67366 -29.17566,-18.91598 -58.05821,-10.91711 -77.24439,-2.85715 -28.09732,-17.42218 -26.67304,-8.13841 -50.02463,3.8673 0.64847,-33.83633 37.2463,-70.28666 96.36039,-68.41043 z"
         style="fill:#ffffff;fill-opacity:1;stroke:#000000;stroke-width:7.08661413;stroke-linecap:butt;stroke-linejoin:miter;stroke-miterlimit:4;stroke-opacity:1;stroke-dasharray:none" />
    </g>
    <g
       id="g37212"
       transform="translate(17.142857,-8.5714286)">
      <path
         sodipodi:nodetypes="csccccsc"
         inkscape:connector-curvature="0"
         id="path30834"
         d="m 483.3185,710.09379 c 42.42641,0 88.25964,1.67368 88.25964,27.93765 0,26.26397 -20.30458,35.52865 -20.30458,35.52865 l -4.53082,99.34158 -117.97248,0.83684 -2.0203,-98.99495 c 0,0 -24.93692,-3.34735 -24.93692,-31.63162 0,-28.28428 81.50546,-33.01815 81.50546,-33.01815 z"
         style="color:#000000;fill:none;stroke:#000000;stroke-width:7.08661413;stroke-linecap:butt;stroke-linejoin:miter;stroke-miterlimit:4;stroke-opacity:1;stroke-dasharray:none;stroke-dashoffset:0;marker:none;visibility:visible;display:inline;overflow:visible;enable-background:accumulate" />
      <path
         sodipodi:nodetypes="cc"
         inkscape:connector-curvature="0"
         id="path30864"
         d="M 431.5301,870.93362 550.10153,719.50505"
         style="color:#000000;fill:none;stroke:#000000;stroke-width:3.54330707;stroke-linecap:butt;stroke-linejoin:miter;stroke-miterlimit:4;stroke-opacity:1;stroke-dasharray:none;stroke-dashoffset:0;marker:none;visibility:visible;display:inline;overflow:visible;enable-background:accumulate" />
    </g>
    <path
       style="color:#000000;fill:#000000;fill-opacity:1;fill-rule:nonzero;stroke:none;stroke-width:1px;marker:none;visibility:visible;display:inline;overflow:visible;enable-background:accumulate"
       d="m 328.48032,871.34867 -72.94211,44.07058 c 0,0 -48.46829,-77.46607 -46.65781,-100.44348 1.82195,-23.123 -21.85381,-59.48692 -21.85381,-59.48692 0,0 -8.76789,2.35007 -11.15833,-1.59928 -2.39044,-3.94935 1.16171,-9.61578 11.40936,-15.16117 10.24766,-5.54538 18.23858,-10.45678 21.3539,-5.26306 3.11531,5.19372 -1.28407,11.49326 -1.28407,11.49326 0,0 19.5035,29.6841 40.31231,35.32595 26.24282,7.11516 80.82056,91.06412 80.82056,91.06412 z"
       id="path30923"
       inkscape:connector-curvature="0"
       sodipodi:nodetypes="ccsczzzcsc" />
    <g
       id="g37193"
       transform="translate(-4.0406102,6.0609153)">
      <path
         sodipodi:nodetypes="zsz"
         inkscape:connector-curvature="0"
         id="path30883"
         d="m 115.53376,527.57307 c 34.34763,0.50511 38.3858,51.51778 -1.01015,51.51778 -39.39596,0 -33.33748,-52.02289 1.01015,-51.51778 z"
         style="color:#000000;fill:none;stroke:#000000;stroke-width:7.08661413;stroke-linecap:butt;stroke-linejoin:miter;stroke-miterlimit:4;stroke-opacity:1;stroke-dasharray:none;stroke-dashoffset:0;marker:none;visibility:visible;display:inline;overflow:visible;enable-background:accumulate" />
      <path
         sodipodi:nodetypes="cc"
         inkscape:connector-curvature="0"
         id="path30902"
         d="m 96.34086,554.84719 c 0.76505,8.04968 4.36802,15.0805 18.28427,15.75454"
         style="color:#000000;fill:none;stroke:#000000;stroke-width:3.54330707;stroke-linecap:butt;stroke-linejoin:miter;stroke-miterlimit:4;stroke-opacity:1;stroke-dasharray:none;stroke-dashoffset:0;marker:none;visibility:visible;display:inline;overflow:visible;enable-background:accumulate" />
      <path
         sodipodi:nodetypes="ccccccc"
         inkscape:connector-curvature="0"
         id="path30921"
         d="m 51.894145,439.6898 53.538085,76.7716 21.2132,-1.01016 58.58885,-71.72082 -14.14213,-21.21321 -105.56094,2.02031 z"
         style="fill:none;stroke:#000000;stroke-width:7.08661413;stroke-miterlimit:4;stroke-opacity:1;stroke-dasharray:none" />
      <path
         sodipodi:nodetypes="cccc"
         inkscape:connector-curvature="0"
         id="path30942"
         d="m 76.16754,442.60642 38.3858,55.55839 46.46701,-56.56854 z"
         style="fill:none;stroke:#000000;stroke-width:5.31496048;stroke-linecap:butt;stroke-linejoin:miter;stroke-miterlimit:4;stroke-opacity:1;stroke-dasharray:none" />
    </g>
  </g>
  <g
     inkscape:groupmode="layer"
     id="layer2"
     inkscape:label="glish_laabls"
     style="display:none">
    <text
       xml:space="preserve"
       style="font-size:24px;font-style:normal;font-variant:normal;font-weight:normal;font-stretch:normal;line-height:125%;letter-spacing:0px;word-spacing:0px;fill:#000000;fill-opacity:1;stroke:none;font-family:Nimbus Sans L;-inkscape-font-specification:Nimbus Sans L"
       x="214.1944"
       y="812.59363"
       id="text30244"
       sodipodi:linespacing="125%"><tspan
         sodipodi:role="line"
         id="tspan30246"
         x="214.1944"
         y="812.59363"
         style="font-size:32px">ggoy</tspan></text>
    <text
       xml:space="preserve"
       style="font-size:24px;font-style:normal;font-variant:normal;font-weight:normal;font-stretch:normal;line-height:125%;letter-spacing:0px;word-spacing:0px;fill:#000000;fill-opacity:1;stroke:none;font-family:Nimbus Sans L;-inkscape-font-specification:Nimbus Sans L"
       x="468.30774"
       y="768.96393"
       id="text30244-6"
       sodipodi:linespacing="125%"><tspan
         sodipodi:role="line"
         id="tspan30246-0"
         x="468.30774"
         y="768.96393"
         style="font-size:32px">kaar</tspan></text>
    <text
       xml:space="preserve"
       style="font-size:24px;font-style:normal;font-variant:normal;font-weight:normal;font-stretch:normal;line-height:125%;letter-spacing:0px;word-spacing:0px;fill:#000000;fill-opacity:1;stroke:none;font-family:Nimbus Sans L;-inkscape-font-specification:Nimbus Sans L"
       x="552.23962"
       y="446.89847"
       id="text30244-1"
       sodipodi:linespacing="125%"><tspan
         sodipodi:role="line"
         id="tspan30246-07"
         x="552.23962"
         y="446.89847"
         style="font-size:32px">sseltr</tspan></text>
    <text
       xml:space="preserve"
       style="font-size:24px;font-style:normal;font-variant:normal;font-weight:normal;font-stretch:normal;line-height:125%;letter-spacing:0px;word-spacing:0px;fill:#000000;fill-opacity:1;stroke:none;font-family:Nimbus Sans L;-inkscape-font-specification:Nimbus Sans L"
       x="79.225677"
       y="493.99924"
       id="text30244-7"
       sodipodi:linespacing="125%"><tspan
         sodipodi:role="line"
         id="tspan30246-6"
         x="79.225677"
         y="493.99924"
         style="font-size:32px">ffeyn</tspan></text>
    <text
       xml:space="preserve"
       style="font-size:24px;font-style:normal;font-variant:normal;font-weight:normal;font-stretch:normal;line-height:125%;letter-spacing:0px;word-spacing:0px;fill:#000000;fill-opacity:1;stroke:none;font-family:Nimbus Sans L;-inkscape-font-specification:Nimbus Sans L"
       x="343.53903"
       y="273.98901"
       id="text30244-2"
       sodipodi:linespacing="125%"><tspan
         sodipodi:role="line"
         id="tspan30246-4"
         x="343.53903"
         y="273.98901"
         style="font-size:32px">seyt</tspan></text>
    <text
       xml:space="preserve"
       style="font-size:24px;font-style:normal;font-variant:normal;font-weight:normal;font-stretch:normal;line-height:125%;letter-spacing:0px;word-spacing:0px;fill:#000000;fill-opacity:1;stroke:none;font-family:Nimbus Sans L;-inkscape-font-specification:Nimbus Sans L"
       x="611.7406"
       y="92.716316"
       id="text30244-7-1"
       sodipodi:linespacing="125%"><tspan
         sodipodi:role="line"
         id="tspan30246-6-3"
         x="611.7406"
         y="92.716316"
         style="font-size:64px">heks rata</tspan></text>
  </g>
  <g
     inkscape:groupmode="layer"
     id="layer3"
     inkscape:label="heks_laabls"
     style="display:inline">
    <path
       style="color:#000000;fill:none;stroke:#000000;stroke-width:4.42913389;stroke-linecap:butt;stroke-linejoin:miter;stroke-miterlimit:4;stroke-opacity:1;stroke-dasharray:none;stroke-dashoffset:0;marker:none;visibility:visible;display:inline;overflow:visible;enable-background:accumulate"
       d="m 628.16408,405.45273 -1.7018,8.5949 -11.6844,5.40496 -4.5394,10.09838 4.2806,0.75384 2.073,4.16476 5.1264,-7.14788 5.3214,-1.18854 -2.3996,15.20906 1.1614,12.82142 -6.4758,8.98048 -2.7932,-3.33024 -4.6432,0.28702 3.627,-8.01346 -1.6314,-5.20266 -10.2696,4.63092 -9.5162,9.13332 1.7598,3.41706 5.5774,2.26848 -0.6808,7.50738 -7.92,3.60144 -5.2762,-3.52944 0.9226,-6.5073 -2.994,-4.84776 -0.2842,-7.49988 6.8232,-23.20982 7.047,-1.73356 -1.4454,6.96816 4.5034,3.2413 -5.3142,5.67074 -11.614,-12.19666 -6.1372,3.54332 -2.7328,18.47702 -6.1096,5.0429 0.7778,-7.87904 -4.39,-2.35098 -3.6084,9.86884 -2.186,-12.76694 -6.3122,3.78858 -17.0806,15.45656 2.6414,11.83126 4.8642,-10.01256 2.7306,5.61674 2.97,-8.59744 4.0118,9.91486 36.6982,11.2165 36.823,-17.71654 0,7.0866"
       id="path6200-30"
       inkscape:connector-curvature="0"
       sodipodi:nodetypes="cccccccccccccccccccccccccccccccccccccccccccccccc" />
    <path
       style="color:#000000;fill:none;stroke:#000000;stroke-width:4.42913389;stroke-linecap:butt;stroke-linejoin:miter;stroke-miterlimit:4;stroke-opacity:1;stroke-dasharray:none;stroke-dashoffset:0;marker:none;visibility:visible;display:inline;overflow:visible;enable-background:accumulate"
       d="m 528.16408,736.20637 -5.927,13.02492 -6.9744,1.41558 -3.0792,4.19204 5.1782,3.48846 6.3438,-0.9314 4.4586,3.61354 0,7.08662 0,0 -14.9536,19.29742 7.3076,4.82424 5.4612,-7.53654 -12.4814,-7.46802 -9.8824,5.05614 -14.9538,19.29738 7.3076,4.82424 5.4612,-7.53656 -16.2266,-13.04178 16.6514,-15.02202 -2.1998,-12.27298 -4.6832,9.52096 -2.9116,-5.12512 -2.97,8.59744 -4.0118,-9.91486 -15.218,11.81502 18.4116,42.51968 39.8916,-15.94488 0,7.0866"
       id="path17857-1-2"
       inkscape:connector-curvature="0"
       sodipodi:nodetypes="cccccccccccccccccccccccccccc" />
    <path
       style="color:#000000;fill:none;stroke:#000000;stroke-width:4.42913389;stroke-linecap:butt;stroke-linejoin:miter;stroke-miterlimit:4;stroke-opacity:1;stroke-dasharray:none;stroke-dashoffset:0;marker:none;visibility:visible;display:inline;overflow:visible;enable-background:accumulate"
       d="m 148.65429,451.16256 -11.7882,30.20408 -5.4212,-2.72012 2.5214,-6.4224 7.6934,2.94076 -3.7798,-8.99736 10.7744,2.71162 0,14.17322 -17.1946,23.5394 5.0662,3.3348 4.3012,-5.39484 -6.3934,-5.19234 9.6818,-1.2253 -7.7356,-7.97508 -12.2742,7.08658 -9.5162,9.13334 1.7598,3.41706 5.5774,2.26848 -0.6808,7.50738 -7.92,3.60144 -5.2762,-3.52944 0.9226,-6.5073 -2.994,-4.84776 -0.2842,-7.49986 16.67,-23.07634 -4.5222,-4.22822 -4.3514,5.03394 9.4152,9.45152 -4.3828,4.58214 -12.8288,-13.02288 -6.1372,3.5433 -3.3666,6.68998 1.8648,5.95846 -3.9152,3.4718 1.6234,4.6029 -4.867199,2.02254 -1.926,-4.74986 -4.4366,0.44706 -3.3882,-7.81294 -9.2058,5.31494 30.685999,35.43308 46.0288,-19.4882 0,7.08662"
       id="path17963-8-1"
       inkscape:connector-curvature="0"
       sodipodi:nodetypes="ccccccccccccccccccccccccccccccccccccccccccc" />
    <path
       style="color:#000000;fill:none;stroke:#000000;stroke-width:4.42913389;stroke-linecap:butt;stroke-linejoin:miter;stroke-miterlimit:4;stroke-opacity:1;stroke-dasharray:none;stroke-dashoffset:0;marker:none;visibility:visible;display:inline;overflow:visible;enable-background:accumulate"
       d="m 394.22501,242.57724 -1.7018,8.59494 -11.6844,5.40496 -4.5394,10.09838 4.2806,0.75384 2.073,4.16476 5.1264,-7.14788 5.3214,-1.18854 1.1242,11.2093 -9.516,9.13332 1.7596,3.41706 5.5776,2.26848 -0.6808,7.50738 -7.92,3.60144 -5.2762,-3.52944 0.9226,-6.5073 -2.994,-4.84776 -6.4216,3.13008 -11.6496,25.97492 -5.9228,-1.80228 2.1838,-6.28548 12.8928,3.42816 1.7768,-6.08686 -17.6924,-4.59856 0,-7.08662 14.6352,-11.60512 1.3124,-7.8125 -6.4346,4.61302 -4.231,-2.62638 6.7426,-8.05936 -12.1496,4.49026 -12.1494,6.82686 9.2058,47.83464 46.0288,-19.4882 0,7.08662"
       id="path6200-6"
       inkscape:connector-curvature="0"
       sodipodi:nodetypes="ccccccccccccccccccccccccccccccccccc" />
    <path
       style="color:#000000;fill:none;stroke:#000000;stroke-width:4.42913389;stroke-linecap:butt;stroke-linejoin:miter;stroke-miterlimit:4;stroke-opacity:1;stroke-dasharray:none;stroke-dashoffset:0;marker:none;visibility:visible;display:inline;overflow:visible;enable-background:accumulate"
       d="m 286.83704,781.24575 -9.3974,27.38844 -2.044,-4.20824 -4.54,-0.65306 3.2552,-3.57468 0.034,-4.788 12.6924,10.6386 0,7.08666 -15.9516,20.06104 4.6664,-0.334 2.8356,3.60528 1.468,-4.60646 4.1298,-2.42328 -15.5596,-5.67264 -6.1372,3.54332 -3.4536,18.58326 -12.6346,0.4531 -0.8034,6.44226 5.7824,-1.6772 -1.1918,-14.25896 -6.1106,-5.99914 16.67,-23.07634 -4.5222,-4.2282 -4.3514,5.03394 9.4152,9.4515 -4.3828,4.58218 -12.8288,-13.02292 -9.2058,5.31494 6.1372,46.063 46.0288,-15.94488 0,7.08662 0,0"
       id="path5699-4"
       inkscape:connector-curvature="0"
       sodipodi:nodetypes="cccccccccccccccccccccccccccccccc" />
    <path
       style="color:#000000;fill:none;stroke:#000000;stroke-width:8.85826778;stroke-linecap:butt;stroke-linejoin:miter;stroke-miterlimit:4;stroke-opacity:1;stroke-dasharray:none;stroke-dashoffset:0;marker:none;visibility:visible;display:inline;overflow:visible;enable-background:accumulate"
       d="m 875.57759,36.12481 -27.8892,25.89712 -5.684,18.18352 27.5632,-5.29388 0.264,-12.40956 -10.8356,4.29288 -9.5524,28.11284 26.136,-9.17668 0,14.17324 -19.0324,18.26668 3.5192,6.83412 11.1552,4.53696 -1.3616,15.01476 -15.84,7.20288 -10.5524,-7.05888 1.8452,-13.0146 -5.988,-9.69552 -12.8432,6.26012 -10.4952,19.74776 4.5224,13.4954 -4.1816,9.52532 -11.2204,-5.48036 -4.7304,-11.9192 -10.7176,-4.10912 3.404,-24.27644 23.3684,-10.80992 9.0792,-20.19676 -8.5616,-1.50764 -4.146,-8.32956 -10.2528,14.29576 -10.6424,2.37708 -26.2356,12.0622 23.9868,85.9916 85.9204,-35.43308 0,14.17324 -33.3024,37.13064 4.3996,24.54592 9.366,-19.04192 5.8232,10.25028 5.94,-17.19488 8.0236,19.82972 -0.252,8.25976 -29.9072,38.59472 14.6152,9.64852 10.9224,-15.07312 -24.9628,-14.93604 -19.7648,10.1124 -5.4656,36.95404 -12.2192,10.0858 1.5556,-15.75808 -8.78,-4.70196 -7.2168,19.73768 -4.3724,-25.53388 -0.324,-13.697 18.4704,-45.19796 15.6636,7.83292 -7.5924,16.9958 -25.4164,-14.15048 -19.5364,9.71656 12.2744,92.126 92.0576,-46.063 0,14.17324"
       id="path5674-5"
       inkscape:connector-curvature="0"
       sodipodi:nodetypes="cccccccccccccccccccccccccccccccccccccccccccccccccccccccccccccc" />
  </g>
</svg>
