<?xml version="1.0" encoding="UTF-8" standalone="no"?>
<!-- Created with Inkscape (http://www.inkscape.org/) -->

<svg
   xmlns:dc="http://purl.org/dc/elements/1.1/"
   xmlns:cc="http://creativecommons.org/ns#"
   xmlns:rdf="http://www.w3.org/1999/02/22-rdf-syntax-ns#"
   xmlns:svg="http://www.w3.org/2000/svg"
   xmlns="http://www.w3.org/2000/svg"
   xmlns:sodipodi="http://sodipodi.sourceforge.net/DTD/sodipodi-0.dtd"
   xmlns:inkscape="http://www.inkscape.org/namespaces/inkscape"
   width="283.46457"
   height="1814.1732"
   id="svg2"
   version="1.1"
   inkscape:version="0.48.3.1 r9886"
   sodipodi:docname="ssuu_kkng_feest_r.ink.svg">
  <defs
     id="defs4" />
  <sodipodi:namedview
     id="base"
     pagecolor="#ffffff"
     bordercolor="#666666"
     borderopacity="1.0"
     inkscape:pageopacity="0.0"
     inkscape:pageshadow="2"
     inkscape:zoom="0.24258858"
     inkscape:cx="149.59603"
     inkscape:cy="892.83859"
     inkscape:document-units="mm"
     inkscape:current-layer="layer3"
     showgrid="true"
     units="mm"
     inkscape:snap-grids="false"
     inkscape:window-width="1024"
     inkscape:window-height="576"
     inkscape:window-x="0"
     inkscape:window-y="24"
     inkscape:window-maximized="1"
     inkscape:object-nodes="true"
     inkscape:snap-global="true"
     fit-margin-top="0"
     fit-margin-left="0"
     fit-margin-right="0"
     fit-margin-bottom="0"
     inkscape:snap-page="true">
    <inkscape:grid
       type="axonomgrid"
       id="grid2989"
       units="mm"
       empspacing="8"
       visible="false"
       enabled="true"
       snapvisiblegridlinesonly="true"
       spacingy="2mm"
       originx="7.2394905mm"
       originy="-11.90019mm" />
  </sodipodi:namedview>
  <metadata
     id="metadata7">
    <rdf:RDF>
      <cc:Work
         rdf:about="">
        <dc:format>image/svg+xml</dc:format>
        <dc:type
           rdf:resource="http://purl.org/dc/dcmitype/StillImage" />
        <dc:title></dc:title>
      </cc:Work>
    </rdf:RDF>
  </metadata>
  <g
     inkscape:groupmode="layer"
     id="layer3"
     inkscape:label="field">
    <path
       style="fill:#2b0054;stroke:#000000;stroke-width:1px;stroke-linecap:butt;stroke-linejoin:miter;stroke-opacity:1;fill-opacity:1"
       d="m 0,0 283.46457,0 0,1814.1732 -283.46457,0 z"
       id="path5672"
       inkscape:connector-curvature="0" />
  </g>
  <g
     inkscape:label="Layer 1"
     inkscape:groupmode="layer"
     id="layer1"
     transform="translate(25.651738,803.97697)"
     style="display:none">
    <path
       sodipodi:nodetypes="ccccc"
       inkscape:connector-curvature="0"
       id="path4068-87-4-8-6-9-7-0"
       d="M 245.48752,627.16552 4.0255102e-6,768.89776 l 0,212.5985 L 245.48752,839.76388 z"
       style="fill:#00ffff;stroke:none;display:inline" />
    <path
       style="fill:#ff00ff;stroke:none;display:inline"
       d="M 245.48752,-790.15741 4.0255102e-6,-648.42521 l 0,155.90564 L 220.9388,-620.07861 l -8e-5,510.23617 24.54872,-14.1732 z"
       id="path4068-96-6-2-1-5-6-1-0"
       inkscape:connector-curvature="0"
       sodipodi:nodetypes="ccccccc" />
    <text
       xml:space="preserve"
       style="font-size:8px;font-style:normal;font-variant:normal;font-weight:normal;font-stretch:normal;line-height:125%;letter-spacing:0px;word-spacing:0px;fill:#000000;fill-opacity:1;stroke:none;font-family:Courier New;-inkscape-font-specification:Courier New"
       x="1155.766"
       y="64.437531"
       id="text8016"
       sodipodi:linespacing="125%"
       transform="translate(0,-761.81099)"><tspan
         sodipodi:role="line"
         id="tspan8018"
         x="1155.766"
         y="64.437531" /></text>
    <path
       style="fill:#00ffff;stroke:none;display:inline"
       d="M 208.66432,-598.81881 -7.597449e-5,-478.3462 l 0,240.94478 L 208.66432,-357.87378 z"
       id="path4068-87-4-8-6-9-1-0-5-2-0-7"
       inkscape:connector-curvature="0"
       sodipodi:nodetypes="ccccc" />
    <path
       style="fill:#ffff00;stroke:none;display:inline"
       d="m 208.66432,-598.81881 -85.92056,49.6063 0,99.21264 85.92056,-49.60633 z"
       id="path4068-94-9-8-1-94-7-3"
       inkscape:connector-curvature="0"
       sodipodi:nodetypes="ccccc" />
    <path
       style="fill:#00ffff;stroke:none;display:inline"
       d="M 208.66432,-343.70067 -7.597449e-5,-223.22811 l 0,240.94481 L 208.66432,-102.75568 z"
       id="path4068-87-4-8-6-9-1-0-5-2-0-7-5"
       inkscape:connector-curvature="0"
       sodipodi:nodetypes="ccccc" />
    <path
       style="fill:#ffff00;stroke:none;display:inline"
       d="m 110.46936,-542.12587 -85.920563,49.60626 0,99.2126 85.920563,-49.60632 z"
       id="path4068-94-9-8-1-94-7-3-1"
       inkscape:connector-curvature="0"
       sodipodi:nodetypes="ccccc" />
    <path
       style="fill:#ffff00;stroke:none;display:inline"
       d="m 110.46928,-428.73995 -85.920563,49.60624 0,99.21264 85.920563,-49.60632 z"
       id="path4068-94-9-8-1-94-7-3-3"
       inkscape:connector-curvature="0"
       sodipodi:nodetypes="ccccc" />
    <path
       style="fill:#ffff00;stroke:none;display:inline"
       d="m 208.66432,-485.43291 -85.92056,49.60624 0,99.21264 85.92056,-49.60632 z"
       id="path4068-94-9-8-1-94-7-3-62"
       inkscape:connector-curvature="0"
       sodipodi:nodetypes="ccccc" />
    <path
       style="fill:#ffff00;stroke:none;display:inline"
       d="m 208.66432,-343.70067 -85.92056,49.60624 0,99.21264 85.92056,-49.60632 z"
       id="path4068-94-9-8-1-94-7-3-5"
       inkscape:connector-curvature="0"
       sodipodi:nodetypes="ccccc" />
    <path
       style="fill:#ffff00;stroke:none;display:inline"
       d="m 110.46936,-287.00775 -85.920563,49.60624 0,99.2126 85.920563,-49.60628 z"
       id="path4068-94-9-8-1-94-7-3-1-0"
       inkscape:connector-curvature="0"
       sodipodi:nodetypes="ccccc" />
    <path
       style="fill:#ffff00;stroke:none;display:inline"
       d="m 110.46928,-173.62187 -85.920563,49.60625 0,99.212631 85.920563,-49.606321 z"
       id="path4068-94-9-8-1-94-7-3-3-7"
       inkscape:connector-curvature="0"
       sodipodi:nodetypes="ccccc" />
    <path
       style="fill:#ffff00;stroke:none;display:inline"
       d="m 208.66432,-230.31483 -85.92056,49.60624 0,99.21264 85.92056,-49.60632 z"
       id="path4068-94-9-8-1-94-7-3-62-3"
       inkscape:connector-curvature="0"
       sodipodi:nodetypes="ccccc" />
    <path
       style="fill:#ff00ff;stroke:none;display:inline"
       d="M 245.48752,-109.84238 4.0255102e-6,31.88974 l 0,99.21287 L 220.9388,3.5435803 l -8e-5,623.6219397 24.54872,-14.17324 z"
       id="path4068-96-6-2-1-5-6-1-0-9"
       inkscape:connector-curvature="0"
       sodipodi:nodetypes="ccccccc" />
    <path
       style="fill:#00ffff;stroke:none;display:inline"
       d="M 208.66432,24.80342 -7.597449e-5,145.27597 l 0,354.33039 L 208.66432,379.13396 z"
       id="path4068-87-4-8-6-9-1-0-5-2-0-7-8"
       inkscape:connector-curvature="0"
       sodipodi:nodetypes="ccccc" />
    <path
       style="fill:#ffff00;stroke:none;display:inline"
       d="m 208.66432,24.80342 -85.92056,49.60623 0,99.21264 85.92056,-49.60632 z"
       id="path4068-94-9-8-1-94-7-3-2"
       inkscape:connector-curvature="0"
       sodipodi:nodetypes="ccccc" />
    <path
       style="fill:#00ffff;stroke:none;display:inline"
       d="M 208.66432,393.30716 -7.597449e-5,513.77972 l 0,240.94484 L 208.66432,634.25216 z"
       id="path4068-87-4-8-6-9-1-0-5-2-0-7-5-1"
       inkscape:connector-curvature="0"
       sodipodi:nodetypes="ccccc" />
    <path
       style="fill:#ffff00;stroke:none;display:inline"
       d="m 110.46936,81.49629 -85.920563,49.60624 0,99.21264 85.920563,-49.60632 z"
       id="path4068-94-9-8-1-94-7-3-1-6"
       inkscape:connector-curvature="0"
       sodipodi:nodetypes="ccccc" />
    <path
       style="fill:#ffff00;stroke:none;display:inline"
       d="m 110.46928,194.88221 -85.920563,49.60624 0,99.21263 85.920563,-49.60631 z"
       id="path4068-94-9-8-1-94-7-3-3-4"
       inkscape:connector-curvature="0"
       sodipodi:nodetypes="ccccc" />
    <path
       style="fill:#ffff00;stroke:none;display:inline"
       d="m 208.66432,138.18929 -85.92056,49.60624 0,99.2126 85.92056,-49.60628 z"
       id="path4068-94-9-8-1-94-7-3-62-5"
       inkscape:connector-curvature="0"
       sodipodi:nodetypes="ccccc" />
    <path
       style="fill:#ffff00;stroke:none;display:inline"
       d="m 208.66432,393.30716 -85.92056,49.60624 0,99.21264 85.92056,-49.60632 z"
       id="path4068-94-9-8-1-94-7-3-5-6"
       inkscape:connector-curvature="0"
       sodipodi:nodetypes="ccccc" />
    <path
       style="fill:#ffff00;stroke:none;display:inline"
       d="m 110.46936,450.00004 -85.920563,49.60624 0,99.21264 85.920563,-49.60632 z"
       id="path4068-94-9-8-1-94-7-3-1-0-4"
       inkscape:connector-curvature="0"
       sodipodi:nodetypes="ccccc" />
    <path
       style="fill:#ffff00;stroke:none;display:inline"
       d="m 110.46928,563.386 -85.920563,49.60624 0,99.2126 85.920563,-49.60628 z"
       id="path4068-94-9-8-1-94-7-3-3-7-8"
       inkscape:connector-curvature="0"
       sodipodi:nodetypes="ccccc" />
    <path
       style="fill:#ffff00;stroke:none;display:inline"
       d="m 208.66432,506.693 -85.92056,49.60624 0,99.21264 85.92056,-49.60634 z"
       id="path4068-94-9-8-1-94-7-3-62-3-2"
       inkscape:connector-curvature="0"
       sodipodi:nodetypes="ccccc" />
    <path
       style="fill:#ffff00;stroke:none;display:inline"
       d="m 208.66432,251.57493 -85.92056,49.60624 0,99.21263 85.92056,-49.60632 z"
       id="path4068-94-9-8-1-94-7-3-62-5-1"
       inkscape:connector-curvature="0"
       sodipodi:nodetypes="ccccc" />
  </g>
  <g
     inkscape:groupmode="layer"
     id="layer2"
     inkscape:label="gleff_sh"
     style="display:inline"
     transform="translate(25.651738,42.165981)">
    <path
       sodipodi:nodetypes="cccccc"
       inkscape:connector-curvature="0"
       id="path4534-88-1"
       d="m 227.07595,1449.2127 -196.39001,113.3859 0,56.693 184.11569,-106.2994 0,56.693 -196.39009,113.3858"
       style="color:#000000;fill:none;stroke:#ffff41;stroke-width:14.17322826000000013;stroke-linecap:butt;stroke-linejoin:miter;stroke-miterlimit:4;stroke-opacity:1;stroke-dasharray:none;stroke-dashoffset:0;marker:none;visibility:visible;display:inline;overflow:visible;enable-background:accumulate" />
    <path
       style="color:#000000;fill:none;stroke:#ffff41;stroke-width:14.17322826000000013;stroke-linecap:butt;stroke-linejoin:miter;stroke-miterlimit:4;stroke-opacity:1;stroke-dasharray:none;stroke-dashoffset:0;marker:none;visibility:visible;display:inline;overflow:visible;enable-background:accumulate"
       d="m 227.07576,88.58285 -41.03416,14.59762 -22.72336,-21.86904 -6.3324,-28.57491 -19.84288,5.872163 1.25704,18.846867 -26.08896,1.00932 -5.37328,19.61912 42.53568,4.74272 16.39808,16.96872 -36.99056,25.4804 -110.469363,63.77937"
       id="path5488-3"
       inkscape:connector-curvature="0"
       sodipodi:nodetypes="cccccccccccc" />
    <path
       style="color:#000000;fill:none;stroke:#ffff41;stroke-width:14.17322826000000013;stroke-linecap:butt;stroke-linejoin:miter;stroke-miterlimit:4;stroke-opacity:1;stroke-dasharray:none;stroke-dashoffset:0;marker:none;visibility:visible;display:inline;overflow:visible;enable-background:accumulate"
       d="m 202.5272,173.62216 -33.1592,28.238 7.5776,30.61336 21.5808,19.7716 -15.0072,14.24784 -15.6936,-10.512 -13.9184,22.08928 -19.6768,-5.15616 17.16,-39.20856 -6.496,-22.68496 -40.5624,19.29448 -7.875124,42.83544 -30.3008,8.74448 -27.9128,-8.80344 -4.835999,20.12056 16.950399,8.3348 -12.1704,23.09831 14.304,14.46296 25.3752,-34.46551 22.894404,-5.7168 3.5712,44.77487 -34.020004,84.79078 -19.5064,8.13072 -14.1552,-32.44152 16.42,-12.24704 51.261604,22.15904 24.5488,0.4744 56.42088,-71.85774 -2.7112,-20.958 -35.17288,3.96216 -2.3968,20.34352 44.82168,33.3139 12.68464,21.02296"
       id="path5488-0-9"
       inkscape:connector-curvature="0"
       sodipodi:nodetypes="ccccccccccccccccccccccccccccccccc" />
    <path
       style="color:#000000;fill:none;stroke:#ffff41;stroke-width:14.17322826000000013;stroke-linecap:butt;stroke-linejoin:miter;stroke-miterlimit:4;stroke-opacity:1;stroke-dasharray:none;stroke-dashoffset:0;marker:none;visibility:visible;display:inline;overflow:visible;enable-background:accumulate"
       d="m 202.5272,428.74021 -20.9912,39.4956 9.0448,26.99072 -8.3632,19.05072 -22.44,-10.96072 -9.4616,-23.83848 -21.4352,-8.21816 -24.54872,14.17328 -23.708724,37.92648 -27.8968,5.66232 -12.3168,16.76816 20.712,13.95384 25.376,-3.7256 17.834404,14.45416 0,28.34648 -60.169604,48.71763 23.9072,12.64351 -22.4792,27.71374 50.5272,-0.1072 32.763124,-18.10158 25.5688,-20.91207 -0.456,-37.36826 -14.3104,-9.84288 17.6032,-8.97145 5.444,-18.1488 12.6104,14.35664 19.0096,-1.51552 -11.024,18.7112 3.3792,22.14408 15.82152,27.37384"
       id="path17857-1-6-6"
       inkscape:connector-curvature="0"
       sodipodi:nodetypes="cccccccccccccccccccccccccccccc" />
    <path
       style="color:#000000;fill:none;stroke:#ffff41;stroke-width:14.17322826000000013;stroke-linecap:butt;stroke-linejoin:miter;stroke-miterlimit:4;stroke-opacity:1;stroke-dasharray:none;stroke-dashoffset:0;marker:none;visibility:visible;display:inline;overflow:visible;enable-background:accumulate"
       d="M 227.07592,712.20488 18.411517,832.6772"
       id="path4479-2-5"
       inkscape:connector-curvature="0"
       sodipodi:nodetypes="cc" />
    <path
       style="color:#000000;fill:none;stroke:#ffff41;stroke-width:14.17322826000000013;stroke-linecap:butt;stroke-linejoin:miter;stroke-miterlimit:4;stroke-opacity:1;stroke-dasharray:none;stroke-dashoffset:0;marker:none;visibility:visible;display:inline;overflow:visible;enable-background:accumulate"
       d="m 202.5272,797.24416 -4.57024,74.46912 -37.65024,25.37928 -9.10216,-55.51256 24.48096,-9.37888 0.712,26.2624 -40.84824,25.48296 -6.6688,-44.18296 -24.54848,14.17344 -7.459044,46.77336 -20.644,45.29096 -29.6032,7.11104 5.7088,-25.32976 -15.892,-14.55628 23.3784,-19.67768 44.511204,45.42788 0,28.34637 -47.153604,106.64305 -21.6848,-10.8805 10.0864,-25.6896 30.7736,11.7631 -15.1192,-35.9895 43.097604,10.8465 24.54872,14.1732 68.77832,-94.15758 -20.26472,-13.3392 -17.2048,21.57944 25.5736,20.7693 -38.7272,4.9013 30.9424,31.90044 24.54872,14.1732 -34.02,84.7909 -19.5064,8.1308 -14.1552,-32.4416 16.42,-12.247 51.2616,22.159 0.002,42.9941"
       id="path5674-0-0"
       inkscape:connector-curvature="0"
       sodipodi:nodetypes="ccccccccccccccccccccccccccccccccccccc" />
    <path
       style="color:#000000;fill:none;stroke:#ffff41;stroke-width:14.17322826000000013;stroke-linecap:butt;stroke-linejoin:miter;stroke-miterlimit:4;stroke-opacity:1;stroke-dasharray:none;stroke-dashoffset:0;marker:none;visibility:visible;display:inline;overflow:visible;enable-background:accumulate"
       d="m 202.5272,1165.7482 -25.5688,20.9121 0.456,37.3682 14.3104,9.843 -17.6032,8.9713 -5.444,18.1488 -12.6104,-14.3565 -19.0096,1.5155 11.024,-18.7113 -3.3792,-22.1441 -40.37072,15.1459 -12.346724,13.2472 -26.4888,16.7826 4.204,61.8934 -22.62,13.0365 -4.508,-27.471 54.3352,-25.7766 7.424804,61.6738 -12.347204,13.2471 -26.4888,16.7826 4.204,61.8934 -22.62,13.0366 -4.508,-27.4711 54.3352,-25.7765 31.973524,19.154 20.9912,-39.4957 -9.0448,-26.9907 8.36328,-19.0507 22.43992,10.9607 9.46168,23.8385 21.43512,8.2182 -8e-5,28.3464"
       id="path8449-4-4"
       inkscape:connector-curvature="0"
       sodipodi:nodetypes="cccccccccccccccccccccccccccccccc" />
  </g>
</svg>
